<?xml version="1.0" encoding="utf-8"?>
<!-- Generator: Adobe Illustrator 15.0.0, SVG Export Plug-In . SVG Version: 6.00 Build 0)  -->
<!DOCTYPE svg PUBLIC "-//W3C//DTD SVG 1.1//EN" "http://www.w3.org/Graphics/SVG/1.1/DTD/svg11.dtd">
<svg version="1.1" id="Layer_1" xmlns="http://www.w3.org/2000/svg" xmlns:xlink="http://www.w3.org/1999/xlink" x="0px" y="0px"
	 width="48px" height="48px" viewBox="0 0 48 48" enable-background="new 0 0 48 48" xml:space="preserve">
<g>
	<g>
		<rect x="18.384" y="11.395" fill="#231F20" width="11.233" height="11.232"/>
		<path fill="#FFFFFF" d="M29.117,11.895v10.232H18.884V11.895H29.117 M30.117,10.895h-1H18.884h-1v1v10.232v1h1h10.233h1v-1V11.895
			V10.895L30.117,10.895z"/>
	</g>
	<g>
		
			<rect x="25.372" y="23.501" transform="matrix(-0.5001 0.866 -0.866 -0.5001 71.7005 16.8415)" fill="#231F20" width="11.234" height="11.232"/>
		<path fill="#FFFFFF" d="M29.117,22.127l8.861,5.117l-5.117,8.861L24,30.989L29.117,22.127 M28.751,20.761l-0.5,0.866l-5.117,8.862
			l-0.5,0.866l0.866,0.5l8.861,5.116l0.866,0.5l0.5-0.866l5.117-8.861l0.5-0.866l-0.866-0.5l-8.861-5.117L28.751,20.761
			L28.751,20.761z"/>
	</g>
	<g>
		
			<rect x="11.394" y="23.5" transform="matrix(-0.866 0.5001 -0.5001 -0.866 46.3028 45.8243)" fill="#231F20" width="11.234" height="11.233"/>
		<path fill="#FFFFFF" d="M18.884,22.127L24,30.989l-8.862,5.116l-5.116-8.861L18.884,22.127 M19.25,20.761l-0.866,0.5l-8.862,5.117
			l-0.866,0.5l0.5,0.866l5.116,8.861l0.5,0.866l0.866-0.5l8.862-5.116l0.866-0.5l-0.5-0.866l-5.116-8.862L19.25,20.761L19.25,20.761
			z"/>
	</g>
	<rect x="18.884" y="11.895" fill="#F39223" width="10.233" height="10.232"/>
	
		<rect x="25.872" y="24" transform="matrix(-0.5 0.866 -0.866 -0.5 71.7002 16.8394)" fill="#FBEA26" width="10.234" height="10.233"/>
	<rect x="11.894" y="24" transform="matrix(-0.5 -0.866 0.866 -0.5 0.3 58.4056)" fill="#BBBDBF" width="10.233" height="10.233"/>
</g>
</svg>
