<?xml version="1.0" encoding="utf-8"?>
<!-- Generator: Adobe Illustrator 15.0.0, SVG Export Plug-In . SVG Version: 6.00 Build 0)  -->
<!DOCTYPE svg PUBLIC "-//W3C//DTD SVG 1.1//EN" "http://www.w3.org/Graphics/SVG/1.1/DTD/svg11.dtd">
<svg version="1.1" id="Layer_1" xmlns="http://www.w3.org/2000/svg" xmlns:xlink="http://www.w3.org/1999/xlink" x="0px" y="0px"
	 width="48px" height="48px" viewBox="0 0 48 48" enable-background="new 0 0 48 48" xml:space="preserve">
<path fill="#D0D2D3" d="M36.279,14.123l-9.57-2.255l0.027,9.832l2.896-2.3c1.165,1.465,1.771,3.375,1.539,5.38
	c-0.23,2.006-1.252,3.728-2.718,4.892c-1.465,1.164-3.375,1.768-5.381,1.537c-2.005-0.229-3.727-1.252-4.891-2.717
	s-1.768-3.375-1.538-5.38c0.23-2.006,1.253-3.729,2.718-4.892l-3.031-3.817c-2.442,1.939-4.144,4.811-4.528,8.152
	c-0.385,3.343,0.622,6.524,2.562,8.966c1.938,2.443,4.811,4.146,8.151,4.53c3.344,0.383,6.525-0.624,8.969-2.563
	c2.441-1.938,4.145-4.809,4.527-8.152c0.385-3.343-0.623-6.524-2.562-8.967L36.279,14.123z"/>
</svg>
