<?xml version="1.0" encoding="utf-8"?>
<!-- Generator: Adobe Illustrator 15.0.0, SVG Export Plug-In . SVG Version: 6.00 Build 0)  -->
<!DOCTYPE svg PUBLIC "-//W3C//DTD SVG 1.1//EN" "http://www.w3.org/Graphics/SVG/1.1/DTD/svg11.dtd">
<svg version="1.1" xmlns="http://www.w3.org/2000/svg" xmlns:xlink="http://www.w3.org/1999/xlink" x="0px" y="0px"
	 width="87.005px" height="76.84px" viewBox="0 0 87.005 76.84" enable-background="new 0 0 87.005 76.84" xml:space="preserve">
<g id="object">
	<path fill="#FFFFFF" stroke="#B1B1B1" stroke-width="10" stroke-miterlimit="10" d="M80.182,51.586
		c-2.216-3.838-6.111-6.271-10.201-6.754c2.077-4.197,1.953-8.973-0.027-12.922c4.132-0.451,8.003-2.783,10.24-6.658
		c3.729-6.457,1.515-14.713-4.94-18.441c-6.459-3.729-14.713-1.516-18.441,4.941c-2.238,3.876-2.322,8.395-0.646,12.199
		c-4.378,0.258-8.552,2.498-11.153,6.344v16.254c1.19,1.762,2.774,3.295,4.741,4.43c1.998,1.154,4.156,1.758,6.312,1.896
		c-1.627,3.784-1.481,8.376,0.736,12.216c3.729,6.457,11.986,8.666,18.443,4.938S83.911,58.043,80.182,51.586z"/>
	<circle fill="#FFFFFF" stroke="#000000" stroke-miterlimit="10" cx="12" cy="38.422" r="11.5"/>
	<path fill="#2F2F2F" stroke="#000000" stroke-miterlimit="10" d="M45.012,30.295c-2.606-3.846-7.013-6.374-12.01-6.375
		c-8.007,0.002-14.499,6.492-14.499,14.501c0,8.008,6.492,14.501,14.498,14.5c4.998,0.001,9.402-2.526,12.011-6.372V30.295z"/>
	<path fill="#2F2F2F" stroke="#000000" stroke-miterlimit="10" d="M69.939,44.93c2.127-4.222,2.009-9.039,0.014-13.02l-13.788-7.959
		c-4.378,0.258-8.552,2.498-11.153,6.344v16.254c1.19,1.762,2.774,3.295,4.741,4.43c2.029,1.172,4.224,1.783,6.414,1.907
		L69.939,44.93z"/>
	<path fill="#FF0000" stroke="#000000" stroke-miterlimit="10" d="M69.953,31.911c4.132-0.451,8.003-2.783,10.24-6.658
		c3.729-6.457,1.515-14.713-4.94-18.441c-6.459-3.729-14.713-1.516-18.441,4.941c-2.238,3.876-2.322,8.395-0.646,12.199
		L69.953,31.911z"/>
	<path fill="#FF0000" stroke="#000000" stroke-miterlimit="10" d="M56.155,52.893c-1.675,3.805-1.59,8.322,0.646,12.197
		c3.729,6.457,11.986,8.666,18.443,4.938s8.666-11.984,4.937-18.441c-2.237-3.875-6.11-6.207-10.242-6.656L56.155,52.893z"/>
	<path fill="#FFFFFF" stroke="#000000" stroke-miterlimit="10" d="M20.358,31.56c2.637,0.521,12.244-5.03,13.106-7.583
		c1.026-3.024,0.802-6.455-0.919-9.439c-3.178-5.5-10.207-7.384-15.711-4.209c-5.498,3.174-7.383,10.208-4.207,15.708
		C14.353,29.027,17.222,30.938,20.358,31.56z"/>
	<path fill="#FFFFFF" stroke="#000000" stroke-miterlimit="10" d="M33.377,52.903c-0.866-2.545-10.476-8.088-13.118-7.56
		c-3.133,0.625-5.993,2.534-7.716,5.517c-3.176,5.501-1.291,12.534,4.21,15.71c5.498,3.175,12.533,1.291,15.709-4.21
		C34.188,59.372,34.408,55.932,33.377,52.903z"/>
</g>
<g id="outline">
	<path fill="none" d="M79.271,50.209c-0.027-0.037-0.06-0.067-0.087-0.103c-2.285-2.978-5.669-4.856-9.202-5.274
		c1.298-2.624,1.737-5.47,1.398-8.202c-0.008-0.062-0.025-0.123-0.033-0.186c-0.066-0.481-0.146-0.961-0.261-1.433
		c-0.061-0.253-0.15-0.499-0.226-0.749c-0.083-0.277-0.151-0.558-0.251-0.83c-0.188-0.519-0.408-1.027-0.656-1.522
		c4.132-0.451,8.003-2.783,10.24-6.658c3.729-6.457,1.515-14.713-4.94-18.441c-6.459-3.729-14.713-1.516-18.441,4.941
		c-2.238,3.876-2.322,8.395-0.646,12.199c-4.378,0.258-8.552,2.498-11.153,6.344c-2.523-3.723-6.735-6.204-11.535-6.36
		c1.011-3.015,0.782-6.427-0.931-9.398c-3.178-5.5-10.207-7.384-15.711-4.209c-5.498,3.174-7.383,10.208-4.207,15.708
		c0.192,0.334,0.404,0.65,0.624,0.957c-0.411-0.044-0.828-0.071-1.251-0.071c-6.352,0-11.5,5.148-11.501,11.5
		c-0.001,6.35,5.149,11.5,11.5,11.5c0.404,0,0.803-0.022,1.196-0.062c-0.231,0.319-0.451,0.651-0.653,1
		c-3.176,5.501-1.291,12.534,4.21,15.71c5.498,3.175,12.533,1.291,15.709-4.21c1.725-2.986,1.945-6.422,0.917-9.45
		c4.841-0.124,9.091-2.612,11.633-6.36c1.19,1.762,2.774,3.295,4.741,4.43c0.502,0.29,1.014,0.544,1.533,0.766
		c0.474,0.203,0.956,0.37,1.44,0.519c0.042,0.013,0.083,0.032,0.125,0.045c1.059,0.313,2.136,0.498,3.214,0.566
		c-1.396,3.247-1.476,7.085-0.072,10.536c0.026,0.066,0.043,0.135,0.071,0.202c0.214,0.502,0.459,0.996,0.737,1.478
		c3.729,6.457,11.986,8.666,18.443,4.938s8.666-11.984,4.937-18.441C79.903,51.104,79.599,50.645,79.271,50.209z"/>
</g>
</svg>
