<?xml version="1.0" encoding="utf-8"?>
<!-- Generator: Adobe Illustrator 15.0.0, SVG Export Plug-In . SVG Version: 6.00 Build 0)  -->
<!DOCTYPE svg PUBLIC "-//W3C//DTD SVG 1.1//EN" "http://www.w3.org/Graphics/SVG/1.1/DTD/svg11.dtd">
<svg version="1.1" xmlns="http://www.w3.org/2000/svg" xmlns:xlink="http://www.w3.org/1999/xlink" x="0px" y="0px"
	 width="103.199px" height="66.796px" viewBox="0 0 103.199 66.796" enable-background="new 0 0 103.199 66.796"
	 xml:space="preserve">
<g id="object">
	<circle fill="#00FF00" stroke="#B1B1B1" stroke-width="10" stroke-miterlimit="10" cx="28" cy="33.377" r="23"/>
	<g>
		<path fill="#FFFFFF" stroke="#B1B1B1" stroke-width="10" stroke-miterlimit="10" d="M91.897,28.196
			c-0.064-0.514-0.152-1.03-0.29-1.545c-1.643-6.135-7.948-9.775-14.083-8.132c-1.927,0.517-3.605,1.492-4.953,2.778
			c-1.168-0.453-2.395-0.737-3.645-0.841c1.13-3.087,0.936-6.634-0.836-9.703c-3.176-5.501-10.209-7.385-15.71-4.209
			c-5.5,3.176-7.385,10.208-4.208,15.708c1.768,3.063,4.733,5.002,7.964,5.572c-1.627,3.432-1.738,7.519-0.014,11.147
			c0.001,0,0.001,0,0.001,0l0,0h-0.001c-3.233,0.569-6.202,2.507-7.973,5.573c-3.176,5.5-1.292,12.534,4.209,15.709
			c5.501,3.177,12.534,1.292,15.71-4.209c1.77-3.066,1.965-6.607,0.84-9.693c1.863-0.148,3.725-0.689,5.451-1.687
			c0.691-0.399,1.324-0.86,1.913-1.359c1.388,2.975,4.028,5.34,7.446,6.255c6.135,1.646,12.44-1.996,14.085-8.13
			C99.237,36.078,96.651,30.601,91.897,28.196z"/>
		<circle fill="#FFFFFF" stroke="#000000" stroke-miterlimit="10" cx="80.5" cy="29.627" r="11.5"/>
		<path fill="#0000FF" stroke="#000000" stroke-miterlimit="10" d="M61.36,22.147c-5.911,3.412-8.117,10.764-5.237,16.823
			c0.001,0,0.001,0,0.001,0l12.785,7.38l0,0c1.863-0.148,3.725-0.689,5.451-1.687c6.218-3.59,8.348-11.541,4.758-17.759
			S67.578,18.558,61.36,22.147z"/>
		<g>
			<path fill="#FFFFFF" stroke="#000000" stroke-miterlimit="10" d="M56.123,38.971c-3.233,0.569-6.202,2.507-7.973,5.573
				c-3.176,5.5-1.292,12.534,4.209,15.709c5.501,3.177,12.534,1.292,15.71-4.209c1.77-3.066,1.965-6.607,0.84-9.693L56.123,38.971z"
				/>
			<g>
				<path fill="#FFFFFF" stroke="#000000" stroke-miterlimit="10" d="M52.381,6.543c-5.5,3.176-7.385,10.208-4.208,15.708
					c1.768,3.063,4.733,5.002,7.964,5.572c2.569,0.455,11.896-4.923,12.79-7.368c1.13-3.087,0.936-6.634-0.836-9.703
					C64.915,5.251,57.882,3.367,52.381,6.543z"/>
			</g>
		</g>
		<path fill="#FFFFFF" stroke="#000000" stroke-miterlimit="10" d="M89.673,27.343c-3.418-0.915-6.889-0.187-9.577,1.697
			c-2.137,1.496-4.924,11.901-3.822,14.265c1.388,2.975,4.028,5.34,7.446,6.255c6.135,1.646,12.44-1.996,14.085-8.13
			C99.448,35.292,95.809,28.988,89.673,27.343z"/>
	</g>
	<circle fill="#00FF00" stroke="#000000" stroke-miterlimit="10" cx="28" cy="33.377" r="23"/>
</g>
<g id="outline">
	<g>
		<path fill="none" d="M98.085,39.981c0.032-0.239,0.062-0.478,0.079-0.716c0.01-0.144,0.013-0.287,0.018-0.431
			c0.008-0.215,0.012-0.43,0.007-0.643c-0.004-0.151-0.011-0.301-0.021-0.451c-0.013-0.204-0.031-0.407-0.055-0.61
			c-0.018-0.151-0.036-0.303-0.06-0.452c-0.031-0.2-0.07-0.398-0.112-0.596c-0.031-0.146-0.06-0.293-0.097-0.438
			c-0.051-0.203-0.113-0.403-0.176-0.603c-0.041-0.134-0.077-0.27-0.124-0.401c-0.096-0.271-0.204-0.537-0.319-0.8
			c-0.072-0.163-0.151-0.322-0.23-0.481c-0.094-0.189-0.187-0.38-0.291-0.564c-0.081-0.145-0.172-0.283-0.26-0.424
			c-0.094-0.15-0.188-0.302-0.288-0.448c-0.1-0.144-0.205-0.283-0.311-0.423c-0.103-0.134-0.205-0.267-0.313-0.397
			c-0.114-0.139-0.232-0.273-0.354-0.406c-0.111-0.122-0.226-0.24-0.342-0.357c-0.129-0.13-0.259-0.258-0.395-0.382
			c-0.12-0.11-0.245-0.214-0.371-0.319c-0.142-0.119-0.283-0.24-0.432-0.353c-0.129-0.098-0.265-0.188-0.398-0.28
			c-0.155-0.108-0.308-0.22-0.47-0.32c-0.135-0.084-0.278-0.157-0.418-0.236c-0.151-0.085-0.298-0.177-0.454-0.256
			c-0.028-0.222-0.062-0.444-0.103-0.667c-0.051-0.292-0.11-0.585-0.188-0.878c-1.643-6.135-7.948-9.775-14.083-8.132
			c-0.441,0.118-0.865,0.267-1.28,0.432c-0.126,0.05-0.248,0.108-0.372,0.163c-0.288,0.126-0.569,0.261-0.842,0.409
			c-0.128,0.069-0.255,0.14-0.38,0.214c-0.275,0.162-0.54,0.336-0.797,0.519c-0.096,0.068-0.195,0.132-0.289,0.203
			c-0.348,0.263-0.682,0.54-0.994,0.838c-0.207-0.08-0.416-0.148-0.626-0.217c-0.134-0.044-0.267-0.089-0.402-0.129
			c-0.209-0.062-0.42-0.119-0.632-0.17c-0.138-0.033-0.276-0.062-0.415-0.09c-0.506-0.105-1.017-0.186-1.533-0.23
			c-0.012-0.001-0.024-0.003-0.037-0.004c1.13-3.087,0.936-6.634-0.836-9.703c-3.176-5.501-10.209-7.385-15.71-4.209
			c-5.5,3.176-7.385,10.208-4.208,15.708c1.768,3.063,4.733,5.002,7.964,5.572c-0.204,0.429-0.383,0.867-0.538,1.314
			c0,0,0,0.001,0,0.001c-0.461,1.331-0.709,2.73-0.723,4.147c0,0.051,0.003,0.101,0.003,0.151c0.001,0.389,0.019,0.776,0.055,1.165
			c0.011,0.122,0.026,0.242,0.041,0.363c0.039,0.323,0.09,0.645,0.154,0.967c0.028,0.142,0.056,0.282,0.089,0.424
			c0.074,0.314,0.164,0.628,0.262,0.939c0.041,0.13,0.076,0.261,0.121,0.391c0.152,0.433,0.322,0.862,0.522,1.284
			c-3.233,0.569-6.202,2.507-7.973,5.573c-3.176,5.5-1.292,12.534,4.209,15.709c5.501,3.177,12.534,1.292,15.71-4.209
			c1.77-3.066,1.965-6.607,0.84-9.693c1.863-0.148,3.725-0.689,5.451-1.687c0.349-0.201,0.683-0.419,1.003-0.648
			c0.314-0.222,0.611-0.459,0.899-0.703c0.003-0.003,0.007-0.005,0.01-0.008c1.388,2.975,4.028,5.34,7.446,6.255
			c6.135,1.646,12.44-1.996,14.085-8.13c0.097-0.361,0.172-0.723,0.232-1.083C98.058,40.225,98.068,40.104,98.085,39.981z"/>
		<circle fill="none" cx="28" cy="33.377" r="23"/>
	</g>
</g>
</svg>
