<?xml version="1.0" encoding="utf-8"?>
<!-- Generator: Adobe Illustrator 15.0.0, SVG Export Plug-In . SVG Version: 6.00 Build 0)  -->
<!DOCTYPE svg PUBLIC "-//W3C//DTD SVG 1.1//EN" "http://www.w3.org/Graphics/SVG/1.1/DTD/svg11.dtd">
<svg version="1.1" xmlns="http://www.w3.org/2000/svg" xmlns:xlink="http://www.w3.org/1999/xlink" x="0px" y="0px"
	 width="86.258px" height="89.945px" viewBox="0 0 86.258 89.945" enable-background="new 0 0 86.258 89.945" xml:space="preserve">
<g id="object">
	<path fill="#FFFFFF" stroke="#B1B1B1" stroke-width="10" stroke-miterlimit="10" d="M77.28,57.716
		c0.66-1.783,1.038-3.703,1.038-5.716c0-9.113-7.387-16.5-16.5-16.5c-2.209,0-4.313,0.442-6.239,1.229
		c-0.515-0.431-1.062-0.823-1.628-1.187l0,0c4.714-2.905,7.867-8.099,7.867-14.042c0-9.113-7.387-16.5-16.5-16.5
		s-16.5,7.387-16.5,16.5c0,5.941,3.151,11.135,7.864,14.04c-4.222,2.722-7.081,7.377-7.326,12.717
		c-4.874-2.635-10.953-2.771-16.103,0.203C5.36,53.017,2.657,63.107,7.213,71c4.557,7.892,14.647,10.596,22.54,6.039
		c5.146-2.972,8.068-8.298,8.228-13.831C40.18,64.346,42.671,65,45.318,65c1.172,0,2.312-0.134,3.412-0.373l0,0
		c-1.277,5.386,0.166,11.284,4.367,15.485c6.444,6.444,16.891,6.444,23.334,0.001C82.575,73.97,82.849,64.2,77.28,57.716z"/>
	<circle fill="#00FF00" stroke="#000000" stroke-miterlimit="10" cx="61.818" cy="52" r="16.5"/>
	<g>
		<g>
			<path fill="#FF00FF" stroke="#000000" stroke-miterlimit="10" d="M45.318,33c-8.585,0-15.572,6.768-15.962,15.257l0,0
				l8.625,14.951C40.18,64.346,42.671,65,45.318,65c8.836,0,16-7.164,16-16C61.318,40.164,54.154,33,45.318,33z"/>
			<path fill="#00FF00" stroke="#000000" stroke-miterlimit="10" d="M29.356,48.257c-4.874-2.635-10.953-2.771-16.103,0.203
				C5.36,53.017,2.657,63.107,7.213,71c4.557,7.892,14.647,10.596,22.54,6.039c5.146-2.972,8.068-8.298,8.228-13.831l0,0
				L29.356,48.257z"/>
		</g>
		<path fill="#00FF00" stroke="#000000" stroke-miterlimit="10" d="M76.432,56.777c-4.201-4.201-10.101-5.645-15.486-4.367
			c-2.874,0.682-11.533,9.342-12.215,12.217c-1.277,5.386,0.166,11.284,4.367,15.485c6.444,6.444,16.891,6.444,23.334,0.001
			C82.877,73.668,82.877,63.223,76.432,56.777z"/>
		<path fill="#00FF00" stroke="#000000" stroke-miterlimit="10" d="M45.318,5c-9.113,0-16.5,7.387-16.5,16.5
			c0,5.943,3.153,11.138,7.868,14.042c2.514,1.548,14.751,1.548,17.265,0c4.714-2.905,7.867-8.099,7.867-14.042
			C61.818,12.387,54.432,5,45.318,5z"/>
	</g>
</g>
<g id="outline">
	<path fill="none" d="M78.5,77.588c0.129-0.193,0.238-0.395,0.358-0.591c0.155-0.257,0.316-0.511,0.457-0.773
		c0.121-0.226,0.223-0.457,0.332-0.687c0.115-0.243,0.236-0.483,0.339-0.73c0.105-0.253,0.193-0.511,0.286-0.768
		c0.082-0.229,0.169-0.457,0.241-0.689c0.087-0.279,0.156-0.562,0.229-0.846c0.054-0.213,0.11-0.424,0.155-0.638
		c0.064-0.306,0.113-0.613,0.16-0.922c0.029-0.193,0.062-0.386,0.084-0.58c0.038-0.33,0.062-0.661,0.08-0.993
		c0.009-0.171,0.021-0.342,0.024-0.514c0.009-0.354,0.002-0.706-0.012-1.06c-0.006-0.148-0.011-0.296-0.021-0.444
		c-0.025-0.374-0.064-0.746-0.114-1.118c-0.018-0.124-0.034-0.248-0.054-0.371c-0.062-0.392-0.139-0.78-0.229-1.168
		c-0.023-0.101-0.048-0.2-0.073-0.3c-0.102-0.405-0.219-0.807-0.353-1.204c-0.026-0.078-0.054-0.155-0.081-0.232
		c-0.146-0.415-0.308-0.823-0.487-1.228c-0.025-0.057-0.053-0.112-0.078-0.169c-0.192-0.419-0.401-0.831-0.63-1.235
		c-0.021-0.038-0.045-0.075-0.066-0.113c-0.242-0.418-0.5-0.828-0.781-1.229c-0.015-0.02-0.029-0.039-0.044-0.06
		c-0.293-0.413-0.605-0.817-0.941-1.208c-0.001-0.001-0.001-0.002-0.002-0.003c0.161-0.436,0.306-0.878,0.431-1.33
		c0.011-0.038,0.019-0.077,0.029-0.115c0.11-0.413,0.212-0.831,0.29-1.257c0.03-0.158,0.048-0.32,0.073-0.479
		c0.051-0.324,0.105-0.646,0.136-0.976c0.051-0.513,0.079-1.032,0.079-1.559c0-9.113-7.387-16.5-16.5-16.5
		c-0.557,0-1.106,0.029-1.648,0.083c-0.458,0.046-0.907,0.121-1.354,0.203c-0.076,0.014-0.154,0.02-0.23,0.035
		c-1.04,0.206-2.042,0.514-3.001,0.906c-0.002,0-0.004,0.001-0.006,0.002c0,0,0,0-0.001,0c-0.142-0.119-0.291-0.227-0.438-0.34
		c-0.172-0.133-0.345-0.265-0.522-0.391c-0.218-0.156-0.438-0.308-0.665-0.454c0,0-0.001-0.001-0.002-0.001
		c4.714-2.905,7.867-8.099,7.867-14.042c0-9.113-7.387-16.5-16.5-16.5s-16.5,7.387-16.5,16.5c0,0.519,0.033,1.03,0.08,1.537
		c0.054,0.581,0.129,1.155,0.242,1.716c0.065,0.323,0.142,0.642,0.226,0.958c0.007,0.026,0.012,0.054,0.019,0.08
		c0.047,0.173,0.104,0.341,0.156,0.512c0.051,0.167,0.097,0.336,0.153,0.501c0.033,0.096,0.073,0.188,0.107,0.283
		c0.085,0.235,0.169,0.47,0.264,0.7c0.068,0.165,0.146,0.325,0.22,0.487c0.07,0.155,0.136,0.312,0.21,0.465
		c0.081,0.164,0.17,0.321,0.256,0.482c0.078,0.146,0.151,0.294,0.233,0.438c0.095,0.167,0.201,0.328,0.302,0.491
		c0.081,0.13,0.157,0.264,0.241,0.392c0.103,0.156,0.215,0.306,0.323,0.458c0.092,0.129,0.179,0.261,0.273,0.387
		c0.105,0.14,0.22,0.273,0.33,0.41c0.106,0.132,0.208,0.267,0.317,0.396c0.129,0.151,0.267,0.294,0.402,0.44
		c0.098,0.107,0.192,0.218,0.293,0.322c0.133,0.137,0.274,0.267,0.412,0.399c0.11,0.106,0.217,0.216,0.33,0.319
		c0.131,0.119,0.269,0.23,0.403,0.345c0.127,0.109,0.251,0.222,0.381,0.327c0.137,0.11,0.281,0.212,0.422,0.317
		c0.135,0.102,0.266,0.208,0.404,0.305c0.154,0.108,0.314,0.208,0.472,0.312c0.13,0.085,0.258,0.176,0.391,0.258
		c-0.112,0.072-0.219,0.152-0.33,0.227c-0.249,0.169-0.492,0.345-0.73,0.527c-0.123,0.095-0.247,0.188-0.367,0.286
		c-0.299,0.243-0.589,0.496-0.869,0.76c-0.106,0.1-0.208,0.204-0.312,0.307c-0.225,0.223-0.443,0.453-0.654,0.689
		c-0.079,0.088-0.162,0.174-0.239,0.264c-0.261,0.304-0.507,0.622-0.744,0.945c-0.081,0.109-0.159,0.22-0.236,0.332
		c-0.236,0.34-0.464,0.685-0.674,1.043c-0.034,0.057-0.063,0.117-0.096,0.175c-0.189,0.332-0.364,0.672-0.53,1.019
		c-0.049,0.102-0.098,0.204-0.145,0.307c-0.176,0.39-0.338,0.787-0.483,1.193c-0.031,0.085-0.057,0.172-0.086,0.258
		c-0.126,0.374-0.239,0.752-0.338,1.137c-0.02,0.075-0.042,0.148-0.06,0.223c-0.105,0.434-0.189,0.875-0.258,1.322
		c-0.015,0.101-0.028,0.202-0.042,0.303c-0.062,0.462-0.111,0.928-0.133,1.401c-4.874-2.635-10.953-2.771-16.103,0.203
		C5.36,53.017,2.657,63.107,7.213,71c4.557,7.892,14.647,10.596,22.54,6.039c5.146-2.972,8.068-8.298,8.228-13.831
		C40.18,64.346,42.671,65,45.318,65c0.583,0,1.158-0.035,1.727-0.097c0.02-0.002,0.04-0.007,0.061-0.009
		c0.55-0.062,1.09-0.151,1.622-0.267c0.001-0.001,0.002-0.001,0.003-0.001c-1.277,5.386,0.166,11.284,4.367,15.485
		c6.444,6.444,16.891,6.444,23.334,0.001c0.394-0.394,0.762-0.803,1.106-1.225c0.122-0.148,0.226-0.305,0.341-0.457
		C78.092,78.153,78.308,77.876,78.5,77.588z"/>
</g>
</svg>
