<?xml version="1.0" encoding="utf-8"?>
<!-- Generator: Adobe Illustrator 15.0.0, SVG Export Plug-In . SVG Version: 6.00 Build 0)  -->
<!DOCTYPE svg PUBLIC "-//W3C//DTD SVG 1.1//EN" "http://www.w3.org/Graphics/SVG/1.1/DTD/svg11.dtd">
<svg version="1.1" xmlns="http://www.w3.org/2000/svg" xmlns:xlink="http://www.w3.org/1999/xlink" x="0px" y="0px"
	 width="121.45px" height="78.383px" viewBox="0 0 121.45 78.383" enable-background="new 0 0 121.45 78.383" xml:space="preserve">
<g id="object">
	<path fill="#FFFFFF" stroke="#000000" stroke-miterlimit="10" d="M55.427,74.428c-5.5-3.176-7.385-10.21-4.209-15.71
		c1.738-3.011,4.635-4.93,7.802-5.537c2.617-0.501,12.144,5.004,13.017,7.528c1.051,3.043,0.836,6.503-0.9,9.509
		C67.961,75.718,60.928,77.604,55.427,74.428z"/>
	<path fill="#FFFFFF" stroke="#000000" stroke-miterlimit="10" d="M65.821,5.465c5.5,3.176,7.385,10.209,4.209,15.709
		c-1.738,3.011-4.635,4.93-7.802,5.537c-2.617,0.501-12.144-5.004-13.017-7.528c-1.051-3.042-0.836-6.503,0.9-9.509
		C53.287,4.175,60.32,2.29,65.821,5.465z"/>
	<circle fill="#FFFFFF" stroke="#000000" stroke-miterlimit="10" cx="104.509" cy="25.539" r="11.5"/>
	<circle fill="#FFFFFF" stroke="#000000" stroke-miterlimit="10" cx="16" cy="52.008" r="11.5"/>
	<path fill="#2F2F2F" stroke="#000000" stroke-miterlimit="10" d="M35.826,32.458c-4.178-2.02-9.251-2.005-13.573,0.491
		c-6.936,4.004-9.312,12.873-5.309,19.807c4.004,6.936,12.872,9.312,19.809,5.309c4.322-2.495,6.872-6.881,7.211-11.51
		L35.826,32.458z"/>
	<path fill="#2F2F2F" stroke="#000000" stroke-miterlimit="10" d="M64.737,32.484c-0.149-2.128-0.755-4.257-1.894-6.229
		c-4.003-6.933-12.872-9.31-19.807-5.306c-4.322,2.495-6.871,6.881-7.211,11.509l8.138,14.096c3.89,1.88,8.549,1.982,12.661-0.022
		L64.737,32.484z"/>
	<path fill="#2F2F2F" stroke="#000000" stroke-miterlimit="10" d="M77.397,32.46c-3.889-1.88-8.548-1.981-12.66,0.024l-8.112,14.048
		c0.148,2.127,0.754,4.254,1.892,6.226c4.005,6.936,12.873,9.312,19.809,5.309c4.322-2.495,6.872-6.881,7.211-11.51L77.397,32.46z"
		/>
	<path fill="#2F2F2F" stroke="#000000" stroke-miterlimit="10" d="M104.417,26.258c-4.004-6.934-12.873-9.311-19.807-5.307
		c-4.322,2.496-6.873,6.881-7.213,11.509l8.139,14.096c4.179,2.02,9.252,2.005,13.574-0.491
		C106.044,42.062,108.421,33.193,104.417,26.258z"/>
	<path fill="#FFFFFF" stroke="#000000" stroke-miterlimit="10" d="M37.071,57.854c-2.039-1.841-13.27-1.876-15.297-0.084
		c-2.385,2.107-3.897,5.18-3.897,8.612c0,6.352,5.148,11.501,11.5,11.501s11.5-5.149,11.5-11.501
		C40.876,62.994,39.402,59.958,37.071,57.854z"/>
	<path fill="#FFFFFF" stroke="#000000" stroke-miterlimit="10" d="M34.528,5.441c-5.5,3.176-7.385,10.209-4.209,15.709
		c1.738,3.011,4.635,4.93,7.802,5.537c2.617,0.501,12.144-5.004,13.017-7.528c1.051-3.042,0.836-6.503-0.9-9.509
		C47.062,4.151,40.029,2.266,34.528,5.441z"/>
	<path fill="#FFFFFF" stroke="#000000" stroke-miterlimit="10" d="M86.72,74.451c5.5-3.176,7.385-10.209,4.209-15.709
		c-1.738-3.012-4.635-4.93-7.801-5.537c-2.617-0.502-12.145,5.004-13.018,7.527c-1.051,3.043-0.836,6.504,0.9,9.51
		C74.187,75.742,81.22,77.627,86.72,74.451z"/>
	<path fill="#FFFFFF" stroke="#000000" stroke-miterlimit="10" d="M23.441,32.341C22.664,26.561,17.958,22.008,12,22.008
		c-6.352,0-11.5,5.149-11.5,11.5c0,6.352,5.148,11.501,11.5,11.501c1.052,0,2.065-0.154,3.034-0.418
		C17.258,43.985,23.841,35.319,23.441,32.341z"/>
	<path fill="#FFFFFF" stroke="#000000" stroke-miterlimit="10" d="M91.859,0.5c-6.352,0-11.5,5.149-11.5,11.501
		c0,3.611,1.668,6.831,4.272,8.939c1.976,1.599,12.472,1.602,14.446,0.006c2.609-2.108,4.281-5.33,4.281-8.946
		C103.359,5.649,98.211,0.5,91.859,0.5z"/>
	<path fill="#FFFFFF" stroke="#000000" stroke-miterlimit="10" d="M109.45,33.374c-1.079,0-2.12,0.151-3.108,0.437
		c-2.334,0.674-8.667,10.091-8.249,12.785c0.857,5.527,5.593,9.779,11.357,9.779c6.352,0,11.5-5.149,11.5-11.5
		C120.95,38.523,115.802,33.374,109.45,33.374z"/>
</g>
<g id="outline">
	<path fill="none" d="M112.502,33.796c2.159-2.091,3.507-5.015,3.507-8.258c0-6.352-5.148-11.501-11.5-11.501
		c-0.462,0-0.916,0.035-1.364,0.088c0.13-0.69,0.215-1.396,0.215-2.125c0-6.352-5.148-11.501-11.5-11.501s-11.5,5.149-11.5,11.501
		c0,3.611,1.668,6.831,4.272,8.939c-0.007,0.004-0.015,0.007-0.021,0.011c-4.322,2.496-6.873,6.881-7.213,11.509
		c-3.889-1.88-8.548-1.981-12.66,0.024c-0.143-2.032-0.716-4.061-1.758-5.958c2.869-0.75,5.451-2.582,7.051-5.352
		c3.176-5.5,1.291-12.534-4.209-15.709c-5.463-3.154-12.434-1.312-15.639,4.101C46.982,4.134,40,2.283,34.528,5.441
		c-5.5,3.176-7.385,10.209-4.209,15.709c1.64,2.841,4.314,4.694,7.271,5.406c-0.995,1.824-1.612,3.833-1.764,5.901
		c-3.801-1.838-8.342-1.984-12.385-0.117l0,0C22.664,26.561,17.958,22.008,12,22.008c-6.352,0-11.5,5.149-11.5,11.5
		c0,4.802,2.945,8.913,7.126,10.635C5.693,46.2,4.5,48.962,4.5,52.008c0,6.352,5.148,11.501,11.5,11.501
		c0.795,0,1.571-0.081,2.32-0.234c-0.279,0.99-0.444,2.027-0.444,3.107c0,6.352,5.148,11.501,11.5,11.501s11.5-5.149,11.5-11.501
		c0-3.388-1.474-6.424-3.805-8.528l0,0c4.121-2.525,6.562-6.789,6.893-11.299c3.89,1.88,8.549,1.982,12.661-0.022
		c0.148,2.127,0.754,4.254,1.892,6.226c0.095,0.164,0.205,0.312,0.305,0.472c-3.088,0.648-5.902,2.541-7.604,5.488
		c-3.176,5.5-1.291,12.534,4.209,15.71c5.463,3.154,12.434,1.312,15.639-4.102c3.199,5.433,10.184,7.284,15.654,4.125
		c5.5-3.176,7.385-10.209,4.209-15.709c-1.702-2.948-4.516-4.84-7.604-5.488c1.275-2.022,2.037-4.326,2.211-6.697
		c3.855,1.864,8.471,1.99,12.557,0.039c0.857,5.527,5.593,9.779,11.357,9.779c6.352,0,11.5-5.149,11.5-11.5
		C120.95,39.582,117.369,35.135,112.502,33.796z"/>
</g>
</svg>
