<?xml version="1.0" encoding="utf-8"?>
<!-- Generator: Adobe Illustrator 15.0.0, SVG Export Plug-In . SVG Version: 6.00 Build 0)  -->
<!DOCTYPE svg PUBLIC "-//W3C//DTD SVG 1.1//EN" "http://www.w3.org/Graphics/SVG/1.1/DTD/svg11.dtd">
<svg version="1.1" xmlns="http://www.w3.org/2000/svg" xmlns:xlink="http://www.w3.org/1999/xlink" x="0px" y="0px"
	 width="71.509px" height="76.842px" viewBox="0 0 71.509 76.842" enable-background="new 0 0 71.509 76.842" xml:space="preserve">
<g id="object">
	<g>
		<path fill="#FFFFFF" stroke="#B1B1B1" stroke-width="10" stroke-miterlimit="10" d="M42.116,46.366
			c2.457,3.358,6.416,5.549,10.897,5.548c7.456-0.004,13.498-6.049,13.496-13.507c-0.002-7.454-6.05-13.497-13.505-13.494
			c-4.477,0.001-8.434,2.19-10.889,5.547c-2.449-3.719-6.562-6.229-11.281-6.498c1.682-3.806,1.6-8.33-0.641-12.21
			c-3.728-6.456-11.983-8.669-18.441-4.941c-6.457,3.728-8.668,11.985-4.941,18.441c2.239,3.878,6.113,6.21,10.248,6.659
			c-0.987,1.959-1.556,4.166-1.556,6.51s0.569,4.55,1.556,6.509c-4.135,0.449-8.009,2.781-10.248,6.659
			c-3.728,6.456-1.517,14.713,4.941,18.441c6.457,3.729,14.714,1.516,18.441-4.941c2.24-3.88,2.322-8.403,0.641-12.21
			c4.719-0.269,8.833-2.779,11.282-6.499V46.366z"/>
	</g>
	<g>
		<path fill="#2F2F2F" stroke="#000000" stroke-miterlimit="10" d="M42.116,30.461c-2.449-3.719-6.562-6.23-11.281-6.499
			l-13.776,7.949c-0.987,1.959-1.556,4.166-1.556,6.51s0.569,4.55,1.556,6.509l13.775,7.949c4.719-0.269,8.833-2.779,11.282-6.499
			V30.461z"/>
		<path fill="#FF0000" stroke="#000000" stroke-miterlimit="10" d="M30.835,23.962c1.682-3.806,1.6-8.33-0.641-12.21
			c-3.728-6.456-11.983-8.669-18.441-4.941c-6.457,3.728-8.668,11.985-4.941,18.441c2.239,3.878,6.113,6.21,10.248,6.659
			C17.059,31.911,30.558,23.947,30.835,23.962z"/>
		<path fill="#FF0000" stroke="#000000" stroke-miterlimit="10" d="M42.116,46.366c2.457,3.358,6.416,5.549,10.897,5.548
			c7.456-0.004,13.498-6.049,13.496-13.507c-0.002-7.454-6.05-13.497-13.505-13.494c-4.477,0.001-8.434,2.19-10.889,5.548
			C42.116,30.461,42.269,46.134,42.116,46.366z"/>
		<path fill="#FF0000" stroke="#000000" stroke-miterlimit="10" d="M17.059,44.93c-4.135,0.449-8.009,2.781-10.248,6.659
			c-3.728,6.456-1.517,14.713,4.941,18.441c6.457,3.729,14.714,1.516,18.441-4.941c2.24-3.88,2.322-8.403,0.641-12.21L17.059,44.93z
			"/>
	</g>
</g>
<g id="outline">
	<path fill="none" d="M53.004,24.913c-0.56,0-1.111,0.034-1.652,0.101c-2.493,0.306-4.759,1.311-6.639,2.788
		c-0.979,0.769-1.862,1.653-2.598,2.659c-1.53-2.324-3.711-4.177-6.283-5.305c-0.212-0.093-0.438-0.159-0.655-0.242
		c-0.837-0.32-1.7-0.586-2.603-0.748c-0.569-0.102-1.149-0.17-1.739-0.204c1.682-3.806,1.6-8.33-0.641-12.21
		c-3.728-6.456-11.983-8.669-18.441-4.941c-6.457,3.728-8.668,11.985-4.941,18.441c2.239,3.878,6.113,6.21,10.248,6.659
		c-0.987,1.959-1.556,4.166-1.556,6.51s0.569,4.55,1.556,6.509c-4.135,0.449-8.009,2.781-10.248,6.659
		c-3.728,6.456-1.517,14.713,4.941,18.441c6.457,3.729,14.714,1.516,18.441-4.941c2.24-3.88,2.322-8.403,0.641-12.21
		c4.719-0.269,8.833-2.779,11.282-6.499v-0.014c2.457,3.358,6.416,5.549,10.897,5.548c7.456-0.004,13.498-6.049,13.496-13.507
		C66.507,30.953,60.459,24.91,53.004,24.913z"/>
</g>
</svg>
