<?xml version="1.0" encoding="utf-8"?>
<!-- Generator: Adobe Illustrator 15.0.0, SVG Export Plug-In . SVG Version: 6.00 Build 0)  -->
<!DOCTYPE svg PUBLIC "-//W3C//DTD SVG 1.1//EN" "http://www.w3.org/Graphics/SVG/1.1/DTD/svg11.dtd">
<svg version="1.1" xmlns="http://www.w3.org/2000/svg" xmlns:xlink="http://www.w3.org/1999/xlink" x="0px" y="0px"
	 width="74.254px" height="69.251px" viewBox="0 0 74.254 69.251" enable-background="new 0 0 74.254 69.251" xml:space="preserve">
<g id="object">
	<path fill="#FFFFFF" stroke="#B1B1B1" stroke-width="10" stroke-miterlimit="10" d="M62.501,39.055
		c-3.967-2.291-8.61-2.33-12.468-0.529h-0.001c-0.415-3.672-2.362-6.871-5.185-8.965c3.488-2.439,5.774-6.48,5.774-11.061
		c0-7.457-6.044-13.5-13.5-13.5s-13.5,6.043-13.5,13.5c0,4.58,2.287,8.621,5.775,11.061c-2.822,2.094-4.771,5.291-5.186,8.965
		c-3.857-1.797-8.496-1.756-12.459,0.533C5.294,42.788,3.083,51.042,6.812,57.5c3.728,6.457,11.982,8.668,18.441,4.939
		c3.963-2.287,6.317-6.281,6.69-10.52C33.531,52.612,35.28,53,37.122,53s3.591-0.389,5.178-1.078l0.008-0.014
		c0.37,4.238,2.728,8.238,6.693,10.529c6.458,3.729,14.713,1.516,18.441-4.941S68.959,42.784,62.501,39.055z"/>
	<g>
		<path fill="#0000FF" stroke="#000000" stroke-miterlimit="10" d="M50.032,38.525c-0.415-3.672-2.362-6.871-5.185-8.964H29.397
			c-2.822,2.092-4.77,5.291-5.186,8.963l7.732,13.396C33.531,52.613,35.28,53,37.122,53s3.591-0.387,5.178-1.078L50.032,38.525z"/>
		<path fill="#FF0000" stroke="#000000" stroke-miterlimit="10" d="M24.211,38.525c-3.856-1.797-8.495-1.755-12.458,0.534
			C5.294,42.787,3.083,51.042,6.811,57.5s11.983,8.67,18.442,4.941c3.962-2.289,6.317-6.283,6.69-10.52L24.211,38.525z"/>
		<path fill="#FF0000" stroke="#000000" stroke-miterlimit="10" d="M44.848,29.562c3.488-2.44,5.774-6.481,5.774-11.062
			c0-7.458-6.044-13.5-13.5-13.5s-13.5,6.043-13.5,13.5c0,4.58,2.287,8.621,5.775,11.062H44.848z"/>
		<path fill="#FF0000" stroke="#000000" stroke-miterlimit="10" d="M42.308,51.906c0.369,4.24,2.727,8.24,6.693,10.531
			c6.458,3.729,14.713,1.516,18.441-4.941s1.517-14.713-4.941-18.441c-3.967-2.29-8.61-2.33-12.468-0.529L42.308,51.906z"/>
	</g>
</g>
<g id="outline">
	<path fill="none" d="M62.501,39.055c-3.967-2.291-8.61-2.33-12.468-0.529h-0.001c-0.225-1.989-0.911-3.831-1.931-5.441
		c-0.862-1.363-1.96-2.563-3.253-3.523c2.615-1.831,4.556-4.561,5.361-7.744c0.27-1.061,0.412-2.172,0.412-3.317
		c0-7.458-6.044-13.5-13.5-13.5s-13.5,6.043-13.5,13.5c0,4.58,2.287,8.621,5.774,11.061c-0.583,0.433-1.118,0.923-1.621,1.444
		c-1.93,2.001-3.235,4.606-3.564,7.52c-2.892-1.348-6.225-1.661-9.382-0.768c-1.052,0.298-2.085,0.729-3.076,1.302
		c-1.713,0.989-3.117,2.302-4.2,3.809c-1.44,2.003-2.301,4.355-2.501,6.789c-0.213,2.589,0.319,5.263,1.683,7.692
		c0.028,0.05,0.049,0.102,0.077,0.151c1.897,3.287,4.97,5.466,8.38,6.329c3.289,0.833,6.891,0.441,10.062-1.389
		c0.682-0.394,1.297-0.854,1.882-1.342c2.242-1.867,3.753-4.357,4.433-7.071c0.173-0.692,0.312-1.394,0.375-2.106
		c0.794,0.346,1.628,0.615,2.494,0.799S36.201,53,37.122,53c1.842,0,3.591-0.389,5.178-1.078l0.008-0.014
		c0.084,0.96,0.283,1.904,0.566,2.822c0.029,0.095,0.046,0.193,0.077,0.287c0.108,0.325,0.249,0.639,0.381,0.954
		c0.073,0.175,0.13,0.354,0.21,0.525c0.146,0.311,0.322,0.605,0.491,0.904c0.094,0.165,0.171,0.339,0.272,0.501
		c1.131,1.816,2.712,3.39,4.695,4.535c6.458,3.729,14.713,1.516,18.441-4.941c1.165-2.019,1.75-4.212,1.807-6.388
		C69.374,46.321,66.94,41.618,62.501,39.055z"/>
</g>
</svg>
