<?xml version="1.0" encoding="utf-8"?>
<!-- Generator: Adobe Illustrator 15.0.0, SVG Export Plug-In . SVG Version: 6.00 Build 0)  -->
<!DOCTYPE svg PUBLIC "-//W3C//DTD SVG 1.1//EN" "http://www.w3.org/Graphics/SVG/1.1/DTD/svg11.dtd">
<svg version="1.1" xmlns="http://www.w3.org/2000/svg" xmlns:xlink="http://www.w3.org/1999/xlink" x="0px" y="0px"
	 width="100.215px" height="82.002px" viewBox="0 0 100.215 82.002" enable-background="new 0 0 100.215 82.002"
	 xml:space="preserve">
<g id="object">
	<circle fill="#FFFFFF" stroke="#000000" stroke-miterlimit="10" cx="12.002" cy="59.502" r="11.5"/>
	<g>
		<path fill="#2F2F2F" stroke="#000000" stroke-miterlimit="10" d="M36.528,35.958c-4.181-2.027-9.26-2.014-13.587,0.485
			c-6.935,4.004-9.312,12.872-5.308,19.808c4.004,6.935,12.873,9.312,19.808,5.308c4.327-2.498,6.878-6.89,7.214-11.523
			L36.528,35.958z"/>
		<path fill="#FFFFFF" stroke="#000000" stroke-miterlimit="10" d="M98.172,32.75c-3.176-5.5-10.207-7.384-15.709-4.209
			c-3.039,1.755-4.969,4.689-5.556,7.891l7.448,12.894c3.065,1.091,6.569,0.888,9.607-0.866
			C99.465,45.284,101.348,38.25,98.172,32.75z"/>
		<path fill="#2F2F2F" stroke="#000000" stroke-miterlimit="10" d="M65.433,36.168c-0.269-4.719-2.779-8.833-6.498-11.282l-15.92,0
			c-3.664,2.413-6.157,6.439-6.487,11.071l8.126,14.077c1.913,0.93,4.051,1.466,6.321,1.466c2.344,0,4.55-0.568,6.509-1.556
			L65.433,36.168z"/>
		<path fill="#FF0000" stroke="#000000" stroke-miterlimit="10" d="M76.908,36.432c-3.71-1.852-7.905-1.841-11.475-0.264
			l-7.949,13.776c0.449,4.134,2.781,8.008,6.659,10.247c6.457,3.729,14.713,1.516,18.441-4.941c1.082-1.875,1.649-3.9,1.771-5.924
			L76.908,36.432z"/>
		<path fill="#FF0000" stroke="#000000" stroke-miterlimit="10" d="M58.935,24.886c3.353-2.457,5.54-6.412,5.54-10.886
			c0-7.457-6.045-13.5-13.5-13.5c-7.456,0-13.5,6.043-13.5,13.5c0,4.475,2.187,8.431,5.541,10.887L58.935,24.886z"/>
	</g>
	<path fill="#FFFFFF" stroke="#000000" stroke-miterlimit="10" d="M15.81,49.38c2.544-0.868,8.088-10.479,7.559-13.121
		c-0.623-3.132-2.533-5.991-5.516-7.715c-5.502-3.175-12.531-1.291-15.71,4.21c-3.175,5.499-1.29,12.532,4.21,15.708
		C9.342,50.188,12.782,50.409,15.81,49.38z"/>
	<path fill="#FFFFFF" stroke="#000000" stroke-miterlimit="10" d="M37.755,61.354c-2.023-1.771-13.116-1.766-15.141,0.013
		c-2.4,2.107-3.922,5.19-3.922,8.636c0,6.352,5.148,11.5,11.5,11.5c6.35,0,11.5-5.148,11.5-11.5
		C41.692,66.551,40.164,63.462,37.755,61.354z"/>
</g>
<g id="outline">
	<path fill="none" d="M98.172,32.75c-3.176-5.5-10.207-7.384-15.709-4.209c-3.039,1.755-4.969,4.689-5.556,7.891
		c-3.71-1.852-7.905-1.841-11.475-0.264c-0.269-4.719-2.779-8.833-6.498-11.282c3.353-2.457,5.54-6.412,5.54-10.886
		c0-7.457-6.045-13.5-13.5-13.5c-7.456,0-13.5,6.043-13.5,13.5c0,4.475,2.187,8.431,5.541,10.887
		c-3.664,2.413-6.157,6.439-6.487,11.071c-4.047-1.963-8.935-2.005-13.169,0.261c-0.631-3.116-2.536-5.958-5.505-7.674
		c-5.502-3.175-12.531-1.291-15.71,4.21c-3.175,5.499-1.29,12.532,4.21,15.708c0.334,0.192,0.675,0.36,1.019,0.516
		c-0.378,0.167-0.752,0.353-1.119,0.564c-5.501,3.176-7.386,10.209-4.21,15.71c3.175,5.499,10.209,7.385,15.71,4.209
		c0.35-0.202,0.685-0.421,1.005-0.652c-0.041,0.393-0.066,0.79-0.066,1.193c0,6.352,5.148,11.5,11.5,11.5
		c6.35,0,11.5-5.148,11.5-11.5c0-3.451-1.529-6.54-3.937-8.648c-0.001-0.001-0.003-0.002-0.004-0.003
		c4.13-2.526,6.575-6.8,6.903-11.316c1.913,0.93,4.051,1.466,6.321,1.466c2.344,0,4.55-0.568,6.509-1.556
		c0.449,4.134,2.781,8.008,6.659,10.247c6.457,3.729,14.713,1.516,18.441-4.941c1.082-1.875,1.649-3.9,1.771-5.924
		c3.065,1.091,6.569,0.888,9.607-0.866C99.465,45.284,101.348,38.25,98.172,32.75z"/>
</g>
</svg>
