<?xml version="1.0" encoding="utf-8"?>
<!-- Generator: Adobe Illustrator 15.0.0, SVG Export Plug-In . SVG Version: 6.00 Build 0)  -->
<!DOCTYPE svg PUBLIC "-//W3C//DTD SVG 1.1//EN" "http://www.w3.org/Graphics/SVG/1.1/DTD/svg11.dtd">
<svg version="1.1" xmlns="http://www.w3.org/2000/svg" xmlns:xlink="http://www.w3.org/1999/xlink" x="0px" y="0px"
	 width="63.679px" height="66.292px" viewBox="0 0 63.679 66.292" enable-background="new 0 0 63.679 66.292" xml:space="preserve">
<g id="object">
	<path fill="#FFFFFF" stroke="#B1B1B1" stroke-width="10" stroke-miterlimit="10" d="M56.813,43.51
		c0.201-0.478,0.383-0.968,0.521-1.483c1.645-6.135-1.996-12.44-8.131-14.084c-1.926-0.516-3.868-0.51-5.678-0.071
		c-0.784-0.976-1.705-1.835-2.735-2.55c2.521-2.109,4.127-5.277,4.127-8.822c0-6.352-5.148-11.499-11.5-11.5
		c-6.352,0-11.5,5.148-11.499,11.5c0,3.537,1.599,6.698,4.111,8.808c-3.125,2.159-5.265,5.642-5.585,9.647c0,0,0,0,0,0v0l0,0
		c-3.084-1.124-6.625-0.93-9.691,0.84c-5.5,3.176-7.385,10.209-4.209,15.709c3.176,5.502,10.209,7.386,15.709,4.21
		c3.066-1.771,5.005-4.74,5.574-7.975c1.689,0.803,3.57,1.265,5.564,1.265c0.799,0,1.578-0.083,2.337-0.221
		c-0.286,3.27,0.818,6.639,3.321,9.141c4.49,4.492,11.771,4.491,16.263,0.001C59.228,54.006,59.727,47.97,56.813,43.51z"/>
	<circle fill="#FFFFFF" stroke="#000000" stroke-miterlimit="10" cx="46.227" cy="39.051" r="11.5"/>
	<path fill="#0000FF" stroke="#000000" stroke-miterlimit="10" d="M33.391,23.003c-6.825,0-12.411,5.263-12.947,11.951c0,0,0,0,0,0
		l7.382,12.785l0,0c1.689,0.803,3.57,1.265,5.564,1.265c7.18,0,13-5.82,13-13S40.57,23.003,33.391,23.003z"/>
	<g>
		<path fill="#FFFFFF" stroke="#000000" stroke-miterlimit="10" d="M20.443,34.954c-3.084-1.124-6.625-0.93-9.691,0.84
			c-5.5,3.176-7.385,10.209-4.209,15.709c3.176,5.502,10.209,7.386,15.709,4.21c3.066-1.771,5.005-4.74,5.574-7.975L20.443,34.954z"
			/>
		<g>
			<path fill="#FFFFFF" stroke="#000000" stroke-miterlimit="10" d="M33.417,5c-6.352,0-11.5,5.148-11.499,11.5
				c0,3.537,1.599,6.698,4.111,8.808c1.999,1.679,12.765,1.685,14.761,0.015c2.521-2.109,4.127-5.277,4.127-8.822
				C44.917,10.148,39.769,5,33.417,5z"/>
		</g>
	</g>
	<path fill="#FFFFFF" stroke="#000000" stroke-miterlimit="10" d="M55.312,41.66c-2.503-2.502-5.873-3.606-9.143-3.319
		c-2.599,0.228-10.215,7.845-10.442,10.442c-0.286,3.27,0.818,6.639,3.321,9.141c4.49,4.492,11.771,4.491,16.263,0.001
		C59.803,53.431,59.803,46.152,55.312,41.66z"/>
</g>
<g id="outline">
	<path fill="none" d="M56.707,56.227c1.98-2.945,2.535-6.794,1.347-10.156c-0.272-0.772-0.604-1.522-1.031-2.223
		c-0.389-0.638,0.358-1.894,0.504-2.659c0.326-1.713,0.256-3.493-0.206-5.175c-0.915-3.33-3.337-6.137-6.508-7.511
		c-1.671-0.724-3.521-1.042-5.339-0.917c-0.676,0.046-1.723,0.542-2.178,0.009c-0.731-0.855-2.258-1.497-2.505-2.273
		c-0.14-0.438,2.547-2.51,3.674-5.62c0.869-2.397,0.397-5.673-0.451-7.679c-1.743-4.121-5.844-6.913-10.317-7.02
		c-4.487-0.107-8.722,2.49-10.659,6.54c-2.143,4.48-1.087,9.985,2.545,13.369c0.146,0.136,0.475-0.02,0.447,0.395
		s-1.719,1.405-2.064,1.769c-0.71,0.749-1.317,1.577-1.835,2.469c-0.942,1.645-0.649,4.861-1.686,5.41s-10.353-0.036-13.313,4.13
		c-2.642,3.717-2.816,8.771-0.443,12.663c2.367,3.879,6.936,6.034,11.436,5.395c4.877-0.693,9.498-5.575,9.703-9.404
		c0.104-1.942,1.603,0.965,3.627,1.117c1.966,0.148,4.463-2.522,4.274-0.073c-0.383,4.971,2.831,10.274,7.835,11.928
		C48.412,62.314,53.841,60.448,56.707,56.227C56.785,56.111,56.57,56.428,56.707,56.227z"/>
</g>
</svg>
