<?xml version="1.0" encoding="utf-8"?>
<!-- Generator: Adobe Illustrator 15.0.0, SVG Export Plug-In . SVG Version: 6.00 Build 0)  -->
<!DOCTYPE svg PUBLIC "-//W3C//DTD SVG 1.1//EN" "http://www.w3.org/Graphics/SVG/1.1/DTD/svg11.dtd">
<svg version="1.1" xmlns="http://www.w3.org/2000/svg" xmlns:xlink="http://www.w3.org/1999/xlink" x="0px" y="0px" width="103px"
	 height="49px" viewBox="0 0 103 49" enable-background="new 0 0 103 49" xml:space="preserve">
<g id="object">
	<g>
		<path fill="#00FF00" stroke="#000000" stroke-miterlimit="10" d="M86,8c-5.191,0-9.817,2.402-12.842,6.15V34.85
			C76.183,38.598,80.809,41,86,41c9.113,0,16.5-7.387,16.5-16.5C102.5,15.387,95.113,8,86,8z"/>
		<path fill="#00FF00" stroke="#000000" stroke-miterlimit="10" d="M29.842,14.15C26.817,10.402,22.192,8,17,8
			C7.887,8,0.5,15.387,0.5,24.5C0.5,33.613,7.887,41,17,41c5.192,0,9.817-2.402,12.842-6.15V14.15z"/>
		<path fill="#FFFFA9" stroke="#000000" stroke-miterlimit="10" d="M73.158,14.15C69.294,6.077,61.049,0.5,51.5,0.5
			S33.707,6.077,29.842,14.15V34.85C33.707,42.923,41.952,48.5,51.5,48.5c9.549,0,17.793-5.577,21.658-13.65V14.15z"/>
	</g>
</g>
<g id="outline">
	<path fill="none" d="M86,8c-5.191,0-9.817,2.402-12.842,6.15C69.294,6.077,61.049,0.5,51.5,0.5S33.707,6.077,29.842,14.15
		C26.817,10.402,22.192,8,17,8C7.887,8,0.5,15.387,0.5,24.5C0.5,33.613,7.887,41,17,41c5.192,0,9.817-2.402,12.842-6.15
		C33.707,42.923,41.952,48.5,51.5,48.5c9.549,0,17.793-5.577,21.658-13.65C76.183,38.598,80.809,41,86,41
		c9.113,0,16.5-7.387,16.5-16.5C102.5,15.387,95.113,8,86,8z"/>
</g>
</svg>
