<?xml version="1.0" encoding="utf-8"?>
<!-- Generator: Adobe Illustrator 15.0.0, SVG Export Plug-In . SVG Version: 6.00 Build 0)  -->
<!DOCTYPE svg PUBLIC "-//W3C//DTD SVG 1.1//EN" "http://www.w3.org/Graphics/SVG/1.1/DTD/svg11.dtd">
<svg version="1.1" xmlns="http://www.w3.org/2000/svg" xmlns:xlink="http://www.w3.org/1999/xlink" x="0px" y="0px"
	 width="100.501px" height="64.056px" viewBox="0 0 100.501 64.056" enable-background="new 0 0 100.501 64.056"
	 xml:space="preserve">
<g id="object">
	<circle fill="#FFFFFF" stroke="#000000" stroke-miterlimit="10" cx="12" cy="30.137" r="11.5"/>
	<circle fill="#FFFFFF" stroke="#000000" stroke-miterlimit="10" cx="71.493" cy="23.31" r="11.5"/>
	<g>
		<path fill="#2F2F2F" stroke="#000000" stroke-miterlimit="10" d="M45.012,22.009c-2.606-3.846-7.012-6.374-12.009-6.374
			c-8.008,0.001-14.5,6.492-14.5,14.501c0,8.007,6.493,14.5,14.5,14.5c4.997,0,9.401-2.527,12.009-6.373V22.009z"/>
		<path fill="#FFFFFF" stroke="#000000" stroke-miterlimit="10" d="M100.001,50.053c0.001-6.351-5.146-11.498-11.499-11.499
			c-3.51,0.001-6.647,1.577-8.757,4.056L79.748,57.5c2.109,2.479,5.245,4.055,8.753,4.055
			C94.854,61.555,100.002,56.405,100.001,50.053z"/>
		<path fill="#2F2F2F" stroke="#000000" stroke-miterlimit="10" d="M69.939,36.645c2.127-4.222,2.01-9.04,0.014-13.02l-13.788-7.96
			c-4.378,0.258-8.551,2.498-11.153,6.344v16.254c1.191,1.762,2.775,3.296,4.741,4.431c2.03,1.172,4.225,1.782,6.415,1.906
			L69.939,36.645z"/>
		<path fill="#FF0000" stroke="#000000" stroke-miterlimit="10" d="M79.745,42.61c-2.287-3.458-5.926-5.547-9.806-5.965L56.167,44.6
			c-1.678,3.805-1.595,8.326,0.644,12.204c3.728,6.458,11.983,8.669,18.441,4.941c1.875-1.083,3.379-2.554,4.496-4.245L79.745,42.61
			z"/>
	</g>
	<path fill="#FFFFFF" stroke="#000000" stroke-miterlimit="10" d="M20.359,23.275c2.637,0.521,12.244-5.03,13.106-7.584
		c1.026-3.024,0.802-6.455-0.919-9.438c-3.177-5.501-10.207-7.385-15.71-4.21C11.337,5.217,9.453,12.25,12.628,17.75
		C14.354,20.741,17.222,22.652,20.359,23.275z"/>
	<path fill="#FFFFFF" stroke="#000000" stroke-miterlimit="10" d="M69.603,23.275c-2.638,0.521-12.244-5.03-13.107-7.584
		c-1.025-3.024-0.801-6.455,0.92-9.438c3.178-5.501,10.207-7.385,15.71-4.21c5.499,3.175,7.384,10.208,4.208,15.708
		C75.607,20.741,72.739,22.652,69.603,23.275z"/>
	<path fill="#FFFFFF" stroke="#000000" stroke-miterlimit="10" d="M33.377,44.617c-0.867-2.545-10.477-8.087-13.119-7.56
		c-3.132,0.626-5.992,2.534-7.715,5.518c-3.176,5.501-1.292,12.534,4.209,15.71c5.499,3.175,12.533,1.291,15.709-4.21
		C34.188,51.086,34.409,47.647,33.377,44.617z"/>
</g>
<g id="outline">
	<path fill="none" d="M88.502,38.554c-3.51,0.001-6.647,1.577-8.757,4.056c-2.287-3.458-5.926-5.547-9.806-5.965
		c0.309-0.613,0.557-1.241,0.772-1.875c0.259,0.018,0.518,0.039,0.781,0.039c6.352,0,11.5-5.149,11.5-11.499
		c0-3.651-1.706-6.898-4.358-9.005c0.966-4.717-1.111-9.724-5.51-12.263c-5.503-3.175-12.532-1.291-15.71,4.21
		c-1.721,2.983-1.945,6.414-0.92,9.438c0.024,0.073,0.08,0.156,0.119,0.234l-0.449-0.259c-4.378,0.258-8.551,2.498-11.153,6.344
		c-2.523-3.723-6.735-6.204-11.535-6.359c1.011-3.015,0.782-6.428-0.931-9.398c-3.177-5.501-10.207-7.385-15.71-4.21
		C11.337,5.217,9.453,12.25,12.628,17.75c0.193,0.334,0.405,0.65,0.625,0.957c-0.412-0.044-0.829-0.071-1.252-0.071
		c-6.352,0-11.5,5.148-11.501,11.501c0,6.35,5.149,11.499,11.501,11.5c0.404,0,0.803-0.021,1.196-0.062
		c-0.231,0.319-0.452,0.65-0.653,1c-3.176,5.501-1.292,12.534,4.209,15.71c5.499,3.175,12.533,1.291,15.709-4.21
		c1.724-2.985,1.946-6.422,0.917-9.45c4.84-0.124,9.09-2.613,11.632-6.361c1.191,1.762,2.775,3.296,4.741,4.431
		c2.03,1.172,4.225,1.782,6.415,1.906c-1.678,3.805-1.595,8.326,0.644,12.204c3.728,6.458,11.983,8.669,18.441,4.941
		c1.875-1.083,3.379-2.554,4.496-4.245c2.109,2.479,5.245,4.055,8.753,4.055c6.354,0,11.501-5.15,11.5-11.502
		C100.002,43.703,94.854,38.555,88.502,38.554z"/>
</g>
</svg>
