<?xml version="1.0" encoding="utf-8"?>
<!-- Generator: Adobe Illustrator 15.0.0, SVG Export Plug-In . SVG Version: 6.00 Build 0)  -->
<!DOCTYPE svg PUBLIC "-//W3C//DTD SVG 1.1//EN" "http://www.w3.org/Graphics/SVG/1.1/DTD/svg11.dtd">
<svg version="1.1" xmlns="http://www.w3.org/2000/svg" xmlns:xlink="http://www.w3.org/1999/xlink" x="0px" y="0px"
	 width="140.047px" height="84.64px" viewBox="0 0 140.047 84.64" enable-background="new 0 0 140.047 84.64" xml:space="preserve">
<g id="object">
	<circle fill="#FFFFFF" stroke="#000000" stroke-miterlimit="10" cx="77.526" cy="23.003" r="11.5"/>
	<circle fill="#FFFFFF" stroke="#000000" stroke-miterlimit="10" cx="82.679" cy="72.64" r="11.499"/>
	<g>
		<path fill="#FFFFFF" stroke="#000000" stroke-miterlimit="10" d="M133.795,42.463c-3.037-1.753-6.541-1.957-9.605-0.867
			l-7.451,12.885c0.586,3.205,2.516,6.144,5.557,7.901c5.502,3.174,12.535,1.289,15.71-4.211S139.296,45.638,133.795,42.463z"/>
		<g>
			<path fill="#2F2F2F" stroke="#000000" stroke-miterlimit="10" d="M97.318,40.97c-4.158-2.095-8.902-2.002-12.848-0.089
				l-8.127,14.076c0.335,4.634,2.886,9.025,7.214,11.523c2.039,1.177,4.244,1.788,6.444,1.909c5.284,0.289,10.536-2.32,13.363-7.216
				c0.008-0.014,0.014-0.029,0.021-0.043c1.156-2.019,1.762-4.199,1.885-6.375L97.318,40.97z"/>
			<path fill="#FF0000" stroke="#000000" stroke-miterlimit="10" d="M122.418,35.673c-3.729-6.458-11.986-8.669-18.441-4.941
				c-3.875,2.237-6.207,6.107-6.658,10.238l7.953,13.786c3.568,1.574,7.76,1.575,11.467-0.274l7.451-12.885
				C124.066,39.573,123.5,37.547,122.418,35.673z"/>
		</g>
	</g>
	<path fill="#FFFFFF" stroke="#000000" stroke-miterlimit="10" d="M108.932,64.194c-1.582-1.583-3.514-2.596-5.545-3.063
		c-3.733-0.859-12.827,5.728-13.385,7.259c-1.479,4.068-0.601,8.801,2.662,12.064c4.489,4.492,11.77,4.495,16.262,0.005
		C113.419,75.969,113.422,68.687,108.932,64.194z"/>
	<circle fill="#FFFFFF" stroke="#000000" stroke-miterlimit="10" cx="57.368" cy="72.639" r="11.499"/>
	<g>
		<path fill="#FFFFFF" stroke="#000000" stroke-miterlimit="10" d="M6.252,42.462c3.037-1.753,6.541-1.957,9.605-0.867l7.451,12.885
			c-0.586,3.205-2.516,6.144-5.557,7.901C12.25,65.555,5.217,63.67,2.042,58.17S0.751,45.637,6.252,42.462z"/>
		<g>
			<path fill="#2F2F2F" stroke="#000000" stroke-miterlimit="10" d="M42.729,40.969c4.158-2.095,8.902-2.002,12.848-0.089
				l8.127,14.076c-0.335,4.634-2.886,9.025-7.214,11.523c-2.039,1.177-4.244,1.788-6.444,1.909
				c-5.284,0.289-10.536-2.32-13.363-7.216c-0.008-0.014-0.014-0.029-0.021-0.043c-1.156-2.019-1.762-4.199-1.885-6.375
				L42.729,40.969z"/>
			<path fill="#FF0000" stroke="#000000" stroke-miterlimit="10" d="M17.629,35.672c3.729-6.458,11.986-8.669,18.441-4.941
				c3.875,2.237,6.207,6.107,6.658,10.238l-7.953,13.786c-3.568,1.574-7.76,1.575-11.467-0.274l-7.451-12.885
				C15.98,39.572,16.547,37.546,17.629,35.672z"/>
		</g>
	</g>
	<path fill="#FFFFFF" stroke="#000000" stroke-miterlimit="10" d="M31.115,64.193c1.582-1.583,3.514-2.596,5.545-3.063
		c3.733-0.859,12.827,5.728,13.385,7.259c1.479,4.068,0.601,8.801-2.662,12.064c-4.489,4.492-11.77,4.495-16.262,0.005
		C26.628,75.968,26.625,68.686,31.115,64.193z"/>
	<g>
		<path fill="#2F2F2F" stroke="#000000" stroke-miterlimit="10" d="M70.856,27.461c-0.277-0.016-0.552-0.04-0.833-0.04
			c-5.666,0-10.555,3.255-12.937,7.991c-0.837,1.666-1.371,3.51-1.511,5.467l8.126,14.077c1.913,0.929,4.051,1.465,6.321,1.465
			s4.408-0.536,6.32-1.465l8.127-14.076C83.955,33.636,78.127,27.876,70.856,27.461z"/>
		<g>
			<path fill="#FFFFFF" stroke="#000000" stroke-miterlimit="10" d="M52.507,9.937c-0.587-3.203-2.516-6.139-5.557-7.894
				c-5.5-3.177-12.533-1.292-15.709,4.208c-3.176,5.501-1.291,12.534,4.209,15.711c3.039,1.754,6.544,1.957,9.61,0.865L52.507,9.937
				z"/>
			<path fill="#FF0000" stroke="#000000" stroke-miterlimit="10" d="M70.216,15.253c-3.59-6.218-11.372-8.482-17.708-5.316
				l-7.447,12.891c0.123,2.023,0.689,4.05,1.772,5.926c2.24,3.879,6.117,6.212,10.254,6.659c2.748,0.297,12.652-5.422,13.769-7.951
				C72.537,23.656,72.455,19.132,70.216,15.253z"/>
		</g>
	</g>
</g>
<g id="outline">
	<path fill="none" d="M133.795,42.463c-3.037-1.753-6.541-1.957-9.605-0.867c-0.123-2.023-0.689-4.049-1.771-5.923
		c-3.729-6.458-11.986-8.669-18.441-4.941c-3.875,2.237-6.207,6.107-6.658,10.238c-4.158-2.095-8.902-2.002-12.848-0.089
		c-0.191-2.685-1.115-5.164-2.568-7.244c4.18-1.722,7.124-5.832,7.124-10.633c0-6.351-5.148-11.5-11.5-11.5
		c-2.999,0-5.722,1.158-7.769,3.039c-3.758-5.667-11.166-7.644-17.25-4.604c-0.587-3.203-2.516-6.139-5.557-7.894
		c-5.5-3.177-12.533-1.292-15.709,4.208c-3.176,5.501-1.291,12.534,4.209,15.711c3.039,1.754,6.544,1.957,9.61,0.865
		c0.123,2.023,0.689,4.05,1.772,5.926c2.24,3.879,6.117,6.212,10.254,6.659c-0.837,1.666-1.371,3.51-1.511,5.467
		c-3.945-1.913-8.689-2.006-12.848,0.089c-0.451-4.131-2.783-8.001-6.658-10.238c-6.455-3.728-14.713-1.517-18.441,4.941
		c-1.082,1.874-1.648,3.9-1.771,5.923c-3.064-1.09-6.568-0.886-9.605,0.867C0.751,45.637-1.133,52.67,2.042,58.17
		s10.208,7.385,15.71,4.211c3.041-1.758,4.971-4.696,5.557-7.901c3.707,1.85,7.898,1.849,11.467,0.274
		c0.123,2.176,0.729,4.356,1.885,6.375c-2.031,0.468-3.963,1.48-5.545,3.063c-4.49,4.493-4.487,11.775,0.006,16.265
		c4.492,4.49,11.772,4.487,16.262-0.005c0.292-0.292,0.542-0.607,0.795-0.922c0.324,0.431,0.669,0.851,1.062,1.242
		c4.493,4.49,11.772,4.488,16.263-0.005c4.49-4.491,4.488-11.772-0.006-16.263c-1.213-1.213-2.633-2.086-4.143-2.644
		c1.356-2.073,2.172-4.45,2.35-6.905c1.912,0.929,4.051,1.465,6.32,1.465s4.408-0.536,6.32-1.465
		c0.178,2.455,0.994,4.832,2.351,6.906c-1.511,0.558-2.931,1.431-4.144,2.644c-4.494,4.49-4.496,11.771-0.006,16.263
		c4.49,4.493,11.77,4.495,16.263,0.005c0.393-0.392,0.737-0.812,1.062-1.242c0.253,0.313,0.503,0.63,0.795,0.922
		c4.489,4.492,11.77,4.495,16.262,0.005c4.493-4.489,4.496-11.771,0.006-16.265c-1.582-1.583-3.514-2.596-5.545-3.063
		c1.156-2.019,1.762-4.199,1.885-6.375c3.568,1.574,7.76,1.575,11.467-0.274c0.586,3.205,2.516,6.144,5.557,7.901
		c5.502,3.174,12.535,1.289,15.71-4.211S139.296,45.638,133.795,42.463z"/>
</g>
</svg>
