<?xml version="1.0" encoding="utf-8"?>
<!-- Generator: Adobe Illustrator 15.0.0, SVG Export Plug-In . SVG Version: 6.00 Build 0)  -->
<!DOCTYPE svg PUBLIC "-//W3C//DTD SVG 1.1//EN" "http://www.w3.org/Graphics/SVG/1.1/DTD/svg11.dtd">
<svg version="1.1" xmlns="http://www.w3.org/2000/svg" xmlns:xlink="http://www.w3.org/1999/xlink" x="0px" y="0px" width="55px"
	 height="37px" viewBox="0 0 55 37" enable-background="new 0 0 55 37" xml:space="preserve">
<g id="object">
	<path fill="#FFFFFF" stroke="#B1B1B1" stroke-width="10" stroke-miterlimit="10" d="M38.5,7c-3.505,0-6.639,1.573-8.748,4.047
		C27.335,7.404,23.2,5,18.5,5C11.044,5,5,11.043,5,18.5C5,25.956,11.044,32,18.5,32c4.699,0,8.834-2.404,11.252-6.047
		C31.861,28.427,34.995,30,38.5,30C44.851,30,50,24.852,50,18.5S44.851,7,38.5,7z"/>
	<g>
		<path fill="#FFFFFF" stroke="#000000" stroke-miterlimit="10" d="M38.5,7c-3.505,0-6.639,1.573-8.748,4.047v14.906
			C31.861,28.427,34.995,30,38.5,30C44.851,30,50,24.852,50,18.5S44.851,7,38.5,7z"/>
		<path fill="#FF0000" stroke="#000000" stroke-miterlimit="10" d="M29.752,11.047C27.335,7.404,23.2,5,18.5,5
			C11.044,5,5,11.043,5,18.5C5,25.956,11.044,32,18.5,32c4.699,0,8.834-2.404,11.252-6.047V11.047z"/>
	</g>
</g>
<g id="outline">
	<path fill="none" d="M38.5,7c-3.505,0-7.08,4.094-8.748,4.047S23.2,5,18.5,5C11.044,5,5,11.043,5,18.5C5,25.956,11.044,32,18.5,32
		c4.699,0,8.754-6.011,11.252-6.047S34.995,30,38.5,30C44.851,30,50,24.852,50,18.5S44.851,7,38.5,7z"/>
</g>
</svg>
