<?xml version="1.0" encoding="utf-8"?>
<!-- Generator: Adobe Illustrator 15.0.0, SVG Export Plug-In . SVG Version: 6.00 Build 0)  -->
<!DOCTYPE svg PUBLIC "-//W3C//DTD SVG 1.1//EN" "http://www.w3.org/Graphics/SVG/1.1/DTD/svg11.dtd">
<svg version="1.1" xmlns="http://www.w3.org/2000/svg" xmlns:xlink="http://www.w3.org/1999/xlink" x="0px" y="0px"
	 width="66.127px" height="47.505px" viewBox="0 0 66.127 47.505" enable-background="new 0 0 66.127 47.505" xml:space="preserve">
<g id="object">
	<path fill="#FFFFFF" stroke="#B1B1B1" stroke-width="10" stroke-miterlimit="10" d="M58.119,23.27
		c2.436-5.329,0.466-11.736-4.713-14.725c-3.171-1.831-6.848-1.971-10.005-0.714c-0.473-0.365-0.965-0.712-1.496-1.019
		c-6.457-3.729-14.714-1.517-18.442,4.941c-1.095,1.896-1.663,3.946-1.776,5.992c-3.347-1.688-7.448-1.714-10.935,0.3
		c-5.501,3.176-7.385,10.21-4.21,15.71c3.176,5.5,10.209,7.385,15.709,4.209c3.114-1.798,5.066-4.834,5.601-8.127
		c0.185,0.119,0.36,0.246,0.553,0.357c3.087,1.781,6.583,2.192,9.8,1.444c-0.017,0.249-0.02,0.488,0.007,0.71
		c0.678,5.717,5.52,10.156,11.415,10.156c6.351,0,11.5-5.148,11.5-11.5C61.127,28.022,59.981,25.313,58.119,23.27z"/>
	<g>
		<circle fill="#FFFFFF" stroke="#000000" stroke-miterlimit="10" cx="47.657" cy="18.504" r="11.499"/>
		<path fill="#FFFFFF" stroke="#000000" stroke-miterlimit="10" d="M21.687,17.745c-3.347-1.688-7.448-1.714-10.935,0.3
			c-5.501,3.176-7.385,10.21-4.21,15.71c3.176,5.5,10.209,7.385,15.709,4.209c3.114-1.798,5.066-4.834,5.601-8.127L21.687,17.745z"
			/>
		<path fill="#FF0000" stroke="#000000" stroke-miterlimit="10" d="M41.905,6.812c-6.457-3.729-14.714-1.517-18.442,4.941
			c-1.095,1.896-1.663,3.946-1.776,5.992l6.165,12.092c0.185,0.119,0.36,0.246,0.553,0.357c6.458,3.727,14.714,1.516,18.442-4.941
			C50.574,18.795,48.362,10.538,41.905,6.812z"/>
		<path fill="#FFFFFF" stroke="#000000" stroke-miterlimit="10" d="M49.627,19.505c-0.392,0-0.778,0.021-1.16,0.059
			c-4.247,0.426-10.718,8.884-10.255,12.785c0.678,5.717,5.52,10.156,11.415,10.156c6.351,0,11.5-5.148,11.5-11.5
			S55.978,19.505,49.627,19.505z"/>
	</g>
</g>
<g id="outline">
	<path fill="none" d="M61.069,29.868c-0.208-2.21-1.11-4.354-2.503-6.077c-0.248-0.307-0.335-0.386-0.341-0.767
		s0.217-0.528,0.308-0.794c0.216-0.629,0.354-1.275,0.475-1.928c0.205-1.121,0.185-2.312,0.022-3.437
		c-0.663-4.703-4.28-8.543-8.896-9.582c-1.223-0.275-2.503-0.341-3.747-0.201c-0.682,0.077-1.356,0.214-2.014,0.41
		c-0.329,0.098-0.537,0.403-0.972,0.337s-0.811-0.584-0.898-0.643c-1.923-1.291-4.233-2.026-6.54-2.163
		c-4.464-0.265-8.88,1.76-11.576,5.332c-1.436,1.902-2.341,4.166-2.625,6.525c-0.034,0.287,0.423,0.566-0.076,0.865
		s-0.411-0.199-0.619-0.288c-4.636-1.995-10.215-0.693-13.45,3.241c-2.881,3.505-3.422,8.525-1.346,12.561
		c2.088,4.059,6.5,6.543,11.054,6.219c4.938-0.351,9.191-3.967,10.353-8.775c0.069-0.286-0.115-0.702,0.174-0.865
		s0.396,0.248,0.598,0.364c2.541,1.457,5.51,2.048,8.41,1.68c0.451-0.058,1.096-0.59,1.345-0.242s0.005,1.188,0.119,1.785
		c0.449,2.347,1.97,4.649,3.639,6.146c2.308,2.072,5.404,3.126,8.497,2.905C56.828,42.02,61.699,36.217,61.069,29.868
		C61.054,29.702,61.106,30.242,61.069,29.868z"/>
</g>
</svg>
