<?xml version="1.0" encoding="utf-8"?>
<!-- Generator: Adobe Illustrator 15.0.0, SVG Export Plug-In . SVG Version: 6.00 Build 0)  -->
<!DOCTYPE svg PUBLIC "-//W3C//DTD SVG 1.1//EN" "http://www.w3.org/Graphics/SVG/1.1/DTD/svg11.dtd">
<svg version="1.1" xmlns="http://www.w3.org/2000/svg" xmlns:xlink="http://www.w3.org/1999/xlink" x="0px" y="0px"
	 width="91.501px" height="66.956px" viewBox="0 0 91.501 66.956" enable-background="new 0 0 91.501 66.956" xml:space="preserve">
<g id="object">
	<path fill="#FFFFFF" stroke="#B1B1B1" stroke-width="10" stroke-miterlimit="10" d="M49,33.45c0-6.836-5.279-12.428-11.982-12.949
		c0.464-1.248,0.73-2.592,0.73-4.001c0-6.351-5.148-11.5-11.5-11.5c-6.351,0-11.5,5.149-11.5,11.5c0,1.99,0.506,3.862,1.396,5.495
		C9.959,22.185,5,27.246,5,33.477c0,6.23,4.959,11.292,11.145,11.482c-0.89,1.633-1.397,3.505-1.397,5.496
		c0,6.352,5.149,11.5,11.5,11.5c6.352,0,11.5-5.148,11.5-11.5c0-1.43-0.273-2.793-0.75-4.057C43.71,45.888,49,40.292,49,33.45z"/>
	<circle fill="#FFFFFF" stroke="#000000" stroke-miterlimit="10" cx="26.248" cy="16.5" r="11.5"/>
	<circle fill="#FFFFFF" stroke="#000000" stroke-miterlimit="10" cx="26.248" cy="50.456" r="11.5"/>
	<circle fill="#0000FF" stroke="#000000" stroke-miterlimit="10" cx="36" cy="33.45" r="13"/>
	<path fill="#FFFFFF" stroke="#000000" stroke-miterlimit="10" d="M25.148,41.04c1.771-2.022,1.765-13.116-0.013-15.14
		c-2.108-2.401-5.19-3.923-8.635-3.923c-6.352,0-11.5,5.148-11.5,11.5c0,6.35,5.148,11.499,11.499,11.5
		C19.951,44.976,23.039,43.448,25.148,41.04z"/>
	<circle fill="#FFFFFF" stroke="#000000" stroke-miterlimit="10" cx="79.501" cy="33.477" r="11.5"/>
	<path fill="#2F2F2F" stroke="#000000" stroke-miterlimit="10" d="M58.5,18.977c-5.104,0-9.584,2.645-12.168,6.632l0,15.736
		c2.583,3.987,7.063,6.632,12.168,6.632c8.01,0,14.5-6.492,14.5-14.5C73,25.469,66.509,18.977,58.5,18.977z"/>
	<path fill="#FFFFFF" stroke="#000000" stroke-miterlimit="10" d="M71.143,40.338c-2.638-0.52-12.244,5.031-13.106,7.584
		c-1.026,3.023-0.802,6.455,0.919,9.439c3.178,5.5,10.207,7.383,15.71,4.209c5.499-3.176,7.384-10.209,4.208-15.709
		C77.148,42.872,74.28,40.961,71.143,40.338z"/>
	<path fill="#FFFFFF" stroke="#000000" stroke-miterlimit="10" d="M58.125,18.997c0.866,2.545,10.477,8.087,13.118,7.559
		c3.133-0.625,5.992-2.533,7.715-5.518c3.176-5.5,1.291-12.533-4.209-15.709C69.25,2.154,62.215,4.038,59.04,9.538
		C57.314,12.527,57.093,15.967,58.125,18.997z"/>
</g>
<g id="outline">
	<path fill="none" d="M91.001,33.477c0-6.35-5.148-11.5-11.501-11.5c-0.404,0-0.803,0.022-1.197,0.063
		c0.231-0.32,0.452-0.652,0.654-1.001c3.176-5.5,1.291-12.533-4.209-15.709C69.25,2.154,62.215,4.038,59.04,9.538
		c-1.724,2.987-1.945,6.422-0.917,9.451c-4.938,0.127-9.255,2.723-11.777,6.6c-0.05-0.065-0.102-0.128-0.152-0.192
		c-0.159-0.201-0.327-0.394-0.497-0.585c-0.094-0.105-0.188-0.211-0.285-0.313c-0.188-0.197-0.383-0.386-0.582-0.571
		c-0.091-0.084-0.181-0.168-0.274-0.249c-0.217-0.19-0.44-0.372-0.67-0.547c-0.084-0.064-0.168-0.128-0.254-0.19
		c-0.247-0.179-0.499-0.35-0.758-0.512c-0.075-0.047-0.15-0.092-0.227-0.138c-0.276-0.165-0.558-0.32-0.847-0.465
		c-0.064-0.032-0.129-0.062-0.194-0.093c-0.306-0.146-0.616-0.282-0.935-0.405c-0.052-0.02-0.105-0.038-0.157-0.057
		c-0.334-0.124-0.673-0.236-1.02-0.333c-0.038-0.01-0.077-0.019-0.115-0.029c-0.362-0.098-0.729-0.182-1.104-0.248
		c-0.022-0.004-0.044-0.006-0.066-0.01c-0.391-0.067-0.786-0.118-1.188-0.149c0,0-0.001,0-0.001,0
		c0.114-0.307,0.216-0.619,0.304-0.938c0.005-0.02,0.01-0.039,0.015-0.059c0.08-0.296,0.153-0.595,0.209-0.901
		c0.02-0.103,0.031-0.208,0.048-0.312c0.037-0.233,0.076-0.466,0.098-0.704c0.035-0.358,0.055-0.72,0.055-1.088
		c0-6.351-5.148-11.5-11.5-11.5c-6.351,0-11.5,5.149-11.5,11.5c0,0.456,0.034,0.903,0.085,1.345
		c0.016,0.136,0.041,0.269,0.062,0.404c0.047,0.309,0.104,0.614,0.175,0.914c0.034,0.144,0.07,0.286,0.11,0.427
		c0.084,0.302,0.182,0.597,0.289,0.888c0.043,0.116,0.081,0.234,0.127,0.348c0.163,0.4,0.342,0.792,0.547,1.168c0,0,0,0,0,0.001
		c-2.704,0.083-5.172,1.092-7.095,2.731c-0.014,0.012-0.026,0.025-0.041,0.037c-0.258,0.222-0.507,0.452-0.744,0.696
		c-0.029,0.029-0.055,0.062-0.083,0.092c-0.219,0.229-0.432,0.465-0.631,0.712c-0.042,0.052-0.08,0.109-0.122,0.163
		c-0.18,0.23-0.355,0.463-0.517,0.708c-0.053,0.08-0.099,0.165-0.15,0.246c-0.141,0.225-0.282,0.451-0.408,0.686
		c-0.059,0.11-0.108,0.228-0.164,0.34c-0.105,0.214-0.214,0.427-0.306,0.648c-0.061,0.145-0.108,0.296-0.163,0.444
		c-0.073,0.198-0.152,0.394-0.214,0.598c-0.056,0.182-0.096,0.371-0.143,0.556c-0.045,0.177-0.098,0.351-0.134,0.532
		c-0.047,0.234-0.076,0.475-0.109,0.714c-0.019,0.139-0.048,0.274-0.062,0.415C5.02,32.695,5,33.084,5,33.477
		s0.02,0.782,0.059,1.165c0.014,0.136,0.042,0.268,0.06,0.402c0.033,0.243,0.062,0.488,0.111,0.727
		c0.036,0.177,0.088,0.347,0.131,0.52c0.048,0.19,0.089,0.383,0.146,0.568c0.062,0.2,0.14,0.394,0.211,0.589
		c0.056,0.15,0.104,0.305,0.166,0.453c0.091,0.218,0.197,0.427,0.301,0.638c0.057,0.116,0.108,0.236,0.169,0.351
		c0.124,0.232,0.263,0.453,0.401,0.676c0.054,0.085,0.101,0.174,0.157,0.257c0.16,0.241,0.333,0.471,0.51,0.699
		c0.044,0.056,0.083,0.115,0.128,0.171c0.197,0.245,0.408,0.478,0.625,0.705c0.03,0.032,0.058,0.066,0.089,0.099
		c0.235,0.241,0.482,0.47,0.738,0.69c0.016,0.014,0.031,0.028,0.047,0.042c0.271,0.231,0.553,0.448,0.845,0.653
		c0.002,0.002,0.004,0.004,0.006,0.005c1.775,1.247,3.916,1.999,6.231,2.072c0.004,0,0.008,0.001,0.012,0.001
		c-0.206,0.377-0.386,0.77-0.549,1.172c-0.045,0.111-0.083,0.227-0.125,0.34c-0.109,0.294-0.207,0.592-0.292,0.896
		c-0.04,0.141-0.075,0.282-0.109,0.425c-0.071,0.301-0.128,0.605-0.176,0.915c-0.021,0.135-0.046,0.268-0.062,0.404
		c-0.052,0.441-0.085,0.889-0.085,1.345c0,6.352,5.149,11.5,11.5,11.5c6.352,0,11.5-5.148,11.5-11.5c0-0.37-0.02-0.735-0.055-1.097
		c-0.023-0.248-0.065-0.49-0.104-0.733c-0.016-0.099-0.026-0.198-0.045-0.295c-0.059-0.315-0.135-0.624-0.219-0.93
		c-0.004-0.016-0.008-0.031-0.012-0.047c-0.091-0.324-0.197-0.642-0.314-0.954c0,0,0,0,0-0.001c0.411-0.031,0.815-0.082,1.214-0.151
		c0.013-0.002,0.025-0.003,0.038-0.006c0.383-0.066,0.76-0.152,1.131-0.252c0.03-0.008,0.06-0.015,0.09-0.023
		c0.354-0.098,0.702-0.212,1.044-0.339c0.045-0.017,0.09-0.032,0.134-0.049c0.326-0.125,0.645-0.264,0.958-0.414
		c0.058-0.027,0.115-0.055,0.173-0.083c0.296-0.147,0.584-0.306,0.867-0.475c0.07-0.042,0.14-0.084,0.209-0.127
		c0.265-0.165,0.523-0.339,0.775-0.521c0.081-0.059,0.16-0.119,0.24-0.18c0.234-0.179,0.462-0.363,0.684-0.558
		c0.089-0.077,0.175-0.157,0.261-0.237c0.204-0.188,0.403-0.381,0.594-0.582c0.094-0.099,0.184-0.201,0.275-0.303
		c0.174-0.194,0.344-0.391,0.506-0.595c0.046-0.059,0.094-0.116,0.139-0.176v0.017c2.503,3.863,6.788,6.458,11.694,6.616
		c-1.011,3.015-0.783,6.429,0.93,9.4c3.178,5.5,10.207,7.383,15.71,4.209c5.499-3.176,7.384-10.209,4.208-15.709
		c-0.192-0.334-0.404-0.649-0.624-0.956c0.411,0.045,0.828,0.071,1.251,0.071C85.852,44.977,91.001,39.829,91.001,33.477z"/>
</g>
</svg>
