<?xml version="1.0" encoding="utf-8"?>
<!-- Generator: Adobe Illustrator 15.0.0, SVG Export Plug-In . SVG Version: 6.00 Build 0)  -->
<!DOCTYPE svg PUBLIC "-//W3C//DTD SVG 1.1//EN" "http://www.w3.org/Graphics/SVG/1.1/DTD/svg11.dtd">
<svg version="1.1" xmlns="http://www.w3.org/2000/svg" xmlns:xlink="http://www.w3.org/1999/xlink" x="0px" y="0px" width="103px"
	 height="57px" viewBox="0 0 103 57" enable-background="new 0 0 103 57" xml:space="preserve">
<g id="object">
	<path fill="#FFFFFF" stroke="#B1B1B1" stroke-width="10" stroke-miterlimit="10" d="M75,5.5c-10.815,0-19.882,7.466-22.339,17.524
		c-0.217-0.026-0.437-0.043-0.661-0.043c-0.22,0-0.436,0.017-0.648,0.042C48.883,12.687,39.592,5,28.5,5C15.521,5,5,15.521,5,28.5
		S15.521,52,28.5,52c11.091,0,20.382-7.687,22.852-18.021C51.564,34.003,51.78,34.02,52,34.02c0.225,0,0.444-0.018,0.661-0.043
		C55.118,44.034,64.185,51.5,75,51.5c12.701,0,23-10.297,23-23S87.701,5.5,75,5.5z"/>
	<circle fill="#00FF00" stroke="#000000" stroke-miterlimit="10" cx="75" cy="28.5" r="23"/>
	<circle fill="#5F5F5F" stroke="#000000" stroke-miterlimit="10" cx="28.5" cy="28.5" r="23.5"/>
</g>
<g id="outline">
	<path fill="none" d="M75,5.5c-0.613,0-1.219,0.031-1.82,0.078c-0.1,0.008-0.2,0.014-0.3,0.023
		c-0.574,0.053-1.141,0.127-1.701,0.221c-0.107,0.018-0.213,0.038-0.319,0.057c-0.569,0.104-1.134,0.223-1.688,0.368
		c-0.047,0.012-0.093,0.027-0.14,0.04c-0.543,0.146-1.077,0.312-1.604,0.495c-0.065,0.023-0.132,0.043-0.196,0.067
		c-0.535,0.191-1.059,0.405-1.574,0.635c-0.088,0.04-0.176,0.079-0.263,0.119c-0.515,0.237-1.021,0.49-1.514,0.763
		c-0.053,0.029-0.104,0.061-0.156,0.09c-0.512,0.289-1.012,0.592-1.498,0.917c-0.005,0.003-0.01,0.006-0.014,0.009
		c-0.489,0.328-0.963,0.678-1.425,1.042c-0.052,0.041-0.104,0.082-0.156,0.123c-0.451,0.362-0.889,0.74-1.312,1.134
		c-0.037,0.035-0.073,0.07-0.109,0.104c-0.878,0.83-1.691,1.727-2.43,2.685c-0.015,0.019-0.029,0.036-0.043,0.055
		c-0.366,0.478-0.713,0.971-1.042,1.478c-0.02,0.03-0.039,0.061-0.059,0.091c-1.002,1.561-1.82,3.25-2.425,5.038
		c-0.008,0.025-0.017,0.05-0.025,0.075c-0.199,0.596-0.376,1.202-0.526,1.818l0,0c-0.217-0.026-0.437-0.043-0.661-0.043
		c-0.22,0-0.436,0.017-0.648,0.042c0-0.001-0.001-0.002-0.001-0.003c-0.153-0.644-0.334-1.278-0.54-1.9
		c-0.001-0.002-0.001-0.004-0.002-0.005c-0.615-1.86-1.457-3.616-2.491-5.237c-0.014-0.02-0.026-0.04-0.039-0.06
		c-1.025-1.596-2.237-3.058-3.606-4.358c-0.035-0.033-0.069-0.067-0.105-0.1c-0.438-0.41-0.891-0.805-1.358-1.181
		c-0.042-0.034-0.085-0.066-0.127-0.1c-0.951-0.753-1.96-1.435-3.022-2.036c-0.056-0.031-0.11-0.064-0.166-0.095
		c-0.507-0.282-1.027-0.543-1.556-0.788c-0.085-0.039-0.17-0.077-0.256-0.116c-0.533-0.238-1.074-0.46-1.627-0.659
		c-0.056-0.021-0.114-0.038-0.17-0.058c-0.542-0.19-1.093-0.361-1.652-0.512c-0.054-0.015-0.106-0.031-0.16-0.045
		c-0.567-0.148-1.145-0.272-1.728-0.378c-0.108-0.02-0.217-0.04-0.326-0.058c-0.575-0.097-1.157-0.173-1.745-0.228
		c-0.101-0.009-0.202-0.015-0.304-0.023C29.751,5.032,29.129,5,28.5,5C15.521,5,5,15.521,5,28.5S15.521,52,28.5,52
		c0.629,0,1.251-0.032,1.869-0.081c0.101-0.008,0.202-0.014,0.303-0.022c0.588-0.055,1.17-0.131,1.746-0.228
		c0.108-0.019,0.216-0.038,0.324-0.058c0.583-0.107,1.161-0.23,1.729-0.379c0.054-0.014,0.106-0.031,0.16-0.045
		c0.56-0.151,1.11-0.322,1.653-0.513c0.057-0.021,0.114-0.037,0.17-0.058c0.553-0.199,1.094-0.422,1.627-0.66
		c0.085-0.038,0.17-0.076,0.255-0.115c0.53-0.244,1.05-0.506,1.558-0.788c0.055-0.031,0.108-0.063,0.164-0.094
		c1.063-0.603,2.074-1.284,3.026-2.039c0.041-0.032,0.082-0.064,0.122-0.097c0.471-0.377,0.925-0.772,1.363-1.185
		c0.034-0.031,0.066-0.063,0.1-0.095c1.371-1.301,2.585-2.765,3.611-4.362c0.012-0.019,0.024-0.038,0.036-0.057
		c1.035-1.621,1.876-3.377,2.492-5.236c0.001-0.003,0.002-0.007,0.003-0.01c0.205-0.621,0.386-1.252,0.539-1.895
		c0.001-0.002,0.001-0.005,0.002-0.007C51.564,34.003,51.78,34.02,52,34.02c0.225,0,0.444-0.018,0.661-0.043
		c0,0.001,0.001,0.003,0.001,0.004c0.15,0.613,0.326,1.216,0.523,1.809c0.01,0.029,0.021,0.058,0.03,0.087
		c0.604,1.784,1.419,3.469,2.419,5.026c0.021,0.033,0.043,0.067,0.064,0.101c0.327,0.504,0.672,0.995,1.037,1.471
		c0.016,0.021,0.032,0.042,0.049,0.062c0.737,0.955,1.547,1.85,2.423,2.677c0.038,0.036,0.075,0.073,0.114,0.109
		c0.422,0.393,0.857,0.77,1.309,1.131c0.053,0.042,0.106,0.084,0.159,0.126c0.461,0.362,0.933,0.711,1.421,1.038
		c0.007,0.005,0.015,0.009,0.021,0.014c0.484,0.324,0.982,0.627,1.492,0.914c0.052,0.029,0.104,0.061,0.156,0.09
		c0.493,0.272,0.999,0.525,1.514,0.763c0.087,0.04,0.175,0.08,0.263,0.119c0.516,0.229,1.039,0.443,1.574,0.635
		c0.064,0.023,0.131,0.044,0.196,0.066c0.526,0.184,1.061,0.35,1.604,0.495c0.047,0.013,0.093,0.028,0.14,0.04
		c0.555,0.145,1.118,0.265,1.688,0.368c0.107,0.02,0.213,0.039,0.32,0.057c0.561,0.094,1.127,0.169,1.701,0.221
		c0.1,0.01,0.2,0.016,0.3,0.023C73.781,51.469,74.387,51.5,75,51.5c12.701,0,23-10.297,23-23S87.701,5.5,75,5.5z"/>
</g>
</svg>
