<?xml version="1.0" encoding="utf-8"?>
<!-- Generator: Adobe Illustrator 15.0.2, SVG Export Plug-In . SVG Version: 6.00 Build 0)  -->
<!DOCTYPE svg PUBLIC "-//W3C//DTD SVG 1.1//EN" "http://www.w3.org/Graphics/SVG/1.1/DTD/svg11.dtd">
<svg version="1.1" xmlns="http://www.w3.org/2000/svg" xmlns:xlink="http://www.w3.org/1999/xlink" x="0px" y="0px"
	 width="114.51px" height="86.198px" viewBox="0 0 114.51 86.198" enable-background="new 0 0 114.51 86.198" xml:space="preserve">
<g id="object">
	<path fill="#B1B1B1" d="M62.256,79.045c5.707-3.295,9.252-9.439,9.252-16.036c0-3.232-0.858-6.426-2.48-9.237
		c-1.924-3.333-4.847-5.94-8.281-7.525c0.169-1.032,0.26-2.081,0.26-3.144c0-1.062-0.09-2.111-0.259-3.143
		c3.434-1.584,6.357-4.192,8.281-7.524c1.623-2.812,2.481-6.006,2.481-9.238c0-6.595-3.545-12.739-9.252-16.034
		c-4.279-2.471-9.265-3.127-14.038-1.849c-4.773,1.279-8.763,4.341-11.233,8.62c-1.618,2.802-2.474,5.988-2.474,9.212
		c0,0.587,0.036,1.169,0.091,1.749c-1.966,0.747-3.802,1.806-5.431,3.133c-3.094-2.189-6.821-3.42-10.677-3.419
		C8.296,24.617,0,32.917,0,43.115c0.001,4.946,1.928,9.59,5.424,13.084c3.496,3.493,8.143,5.416,13.083,5.414
		c3.856-0.001,7.583-1.234,10.675-3.425c1.628,1.324,3.459,2.379,5.42,3.125c-0.054,0.579-0.09,1.161-0.09,1.748
		c0,3.225,0.855,6.411,2.473,9.214C42.085,81.108,53.422,84.145,62.256,79.045z"/>
	<path fill="#B1B1B1" d="M114.51,64.698c0-11.855-9.646-21.5-21.5-21.5c-11.856,0-21.5,9.645-21.5,21.5
		c0,11.855,9.645,21.5,21.5,21.5C104.863,86.198,114.51,76.553,114.51,64.698z"/>
	<path fill="#B1B1B1" d="M114.51,21.5c0-11.854-9.646-21.5-21.5-21.5c-11.856,0-21.5,9.646-21.5,21.5s9.645,21.499,21.5,21.499
		C104.863,42.999,114.51,33.354,114.51,21.5z"/>
	<g>
		<path fill="#2F2F2F" stroke="#000000" stroke-miterlimit="10" d="M29.393,51.064c2.449,3.719,6.563,6.23,11.282,6.499
			l13.776-7.949c0.987-1.959,1.556-4.166,1.556-6.51s-0.569-4.55-1.556-6.509l-13.775-7.949c-4.719,0.269-8.833,2.779-11.282,6.499
			V51.064z"/>
		<path fill="#FF0000" stroke="#000000" stroke-miterlimit="10" d="M40.674,57.563c-1.682,3.806-1.6,8.33,0.641,12.211
			c3.728,6.455,11.983,8.67,18.441,4.941c6.457-3.729,8.668-11.986,4.941-18.442c-2.239-3.878-6.113-6.21-10.248-6.659
			C54.45,49.614,40.951,57.579,40.674,57.563z"/>
		<path fill="#FF0000" stroke="#000000" stroke-miterlimit="10" d="M29.393,35.159c-2.457-3.358-6.416-5.549-10.896-5.548
			C11.04,29.615,4.998,35.66,5,43.118c0.002,7.454,6.051,13.497,13.505,13.494c4.478-0.001,8.435-2.19,10.889-5.548
			C29.394,51.064,29.24,35.392,29.393,35.159z"/>
		<path fill="#FF0000" stroke="#000000" stroke-miterlimit="10" d="M54.45,36.596c4.135-0.449,8.009-2.781,10.248-6.659
			c3.728-6.456,1.517-14.713-4.941-18.441C53.3,7.767,45.043,9.979,41.315,16.437c-2.24,3.88-2.322,8.403-0.641,12.21L54.45,36.596z
			"/>
	</g>
	<circle fill="#5F5F5F" stroke="#000000" stroke-miterlimit="10" cx="93.01" cy="64.698" r="16.5"/>
	<circle fill="#5F5F5F" stroke="#000000" stroke-miterlimit="10" cx="93.01" cy="21.5" r="16.5"/>
</g>
<g id="circles">
	<circle id="Sodium-Ion_3_" fill="none" cx="93.01" cy="21.5" r="21.5"/>
	<circle id="Sodium-Ion_2_" fill="none" cx="93.01" cy="64.499" r="21.5"/>
	<circle id="Oxygen-Ion_5_" fill="none" cx="53.01" cy="23.183" r="18.499"/>
	<circle id="Oxygen-Ion_4_" fill="none" cx="53.01" cy="63.07" r="18.499"/>
	<circle id="Oxygen-Ion_3_" fill="none" cx="18.498" cy="43.105" r="18.499"/>
	<circle id="Carbon-Ion_1_" fill="none" cx="41.503" cy="43.105" r="19.495"/>
</g>
</svg>
