<?xml version="1.0" encoding="utf-8"?>
<!-- Generator: Adobe Illustrator 15.0.0, SVG Export Plug-In . SVG Version: 6.00 Build 0)  -->
<!DOCTYPE svg PUBLIC "-//W3C//DTD SVG 1.1//EN" "http://www.w3.org/Graphics/SVG/1.1/DTD/svg11.dtd">
<svg version="1.1" xmlns="http://www.w3.org/2000/svg" xmlns:xlink="http://www.w3.org/1999/xlink" x="0px" y="0px"
	 width="133.785px" height="76.84px" viewBox="0 0 133.785 76.84" enable-background="new 0 0 133.785 76.84" xml:space="preserve">
<g id="object">
	<path fill="#FFFFFF" stroke="#B1B1B1" stroke-width="10" stroke-miterlimit="10" d="M111.003,15.202
		c-0.478-0.201-0.968-0.383-1.483-0.521c-6.135-1.645-12.44,1.996-14.084,8.131c-0.516,1.926-0.51,3.868-0.071,5.678
		c-0.976,0.784-1.835,1.705-2.55,2.735c-2.109-2.521-5.277-4.127-8.822-4.127c-6.352,0-11.499,5.148-11.5,11.5
		c0,6.352,5.148,11.5,11.5,11.499c3.537,0.001,6.698-1.598,8.808-4.11c2.159,3.124,5.642,5.265,9.647,5.585l0,0l0,0l0,0
		c-1.125,3.085-0.93,6.625,0.84,9.691c3.176,5.5,10.209,7.385,15.709,4.209c5.502-3.176,7.386-10.209,4.21-15.709
		c-1.771-3.066-4.74-5.006-7.975-5.574c0.803-1.688,1.265-3.57,1.265-5.564c0-0.799-0.083-1.578-0.221-2.337
		c3.27,0.286,6.639-0.818,9.141-3.321c4.492-4.49,4.491-11.771,0.001-16.263C121.499,12.787,115.463,12.288,111.003,15.202z"/>
	<circle fill="#FFFFFF" stroke="#000000" stroke-miterlimit="10" cx="106.544" cy="25.789" r="11.5"/>
	<path fill="#FFFFFF" stroke="#B1B1B1" stroke-width="10" stroke-miterlimit="10" d="M80.182,51.586
		c-2.216-3.838-6.111-6.27-10.201-6.754c2.077-4.197,1.953-8.972-0.027-12.921c4.132-0.451,8.003-2.783,10.24-6.658
		c3.729-6.457,1.515-14.713-4.94-18.441c-6.459-3.729-14.713-1.516-18.441,4.941c-2.238,3.876-2.322,8.395-0.646,12.199
		c-4.378,0.258-8.552,2.498-11.153,6.344v16.253c1.19,1.762,2.774,3.295,4.741,4.43c1.998,1.154,4.156,1.758,6.312,1.896
		c-1.627,3.783-1.481,8.375,0.736,12.215c3.729,6.457,11.986,8.666,18.443,4.938S83.911,58.043,80.182,51.586z"/>
	<circle fill="#FFFFFF" stroke="#000000" stroke-miterlimit="10" cx="12" cy="38.422" r="11.5"/>
	<path fill="#2F2F2F" stroke="#000000" stroke-miterlimit="10" d="M45.012,30.295c-2.606-3.846-7.013-6.374-12.01-6.375
		c-8.007,0.002-14.499,6.492-14.499,14.501c0,8.008,6.492,14.5,14.498,14.5c4.998,0,9.402-2.527,12.011-6.373V30.295z"/>
	<path fill="#2F2F2F" stroke="#000000" stroke-miterlimit="10" d="M69.939,44.93c2.127-4.221,2.009-9.039,0.014-13.019
		l-13.788-7.959c-4.378,0.258-8.552,2.498-11.153,6.344v16.253c1.19,1.762,2.774,3.295,4.741,4.43
		c2.029,1.172,4.224,1.783,6.414,1.908L69.939,44.93z"/>
	<path fill="#FF0000" stroke="#000000" stroke-miterlimit="10" d="M69.953,31.911c4.132-0.451,8.003-2.783,10.24-6.658
		c3.729-6.457,1.515-14.713-4.94-18.441c-6.459-3.729-14.713-1.516-18.441,4.941c-2.238,3.876-2.322,8.395-0.646,12.199
		L69.953,31.911z"/>
	<path fill="#FF0000" stroke="#000000" stroke-miterlimit="10" d="M56.155,52.893c-1.675,3.805-1.59,8.322,0.646,12.197
		c3.729,6.457,11.986,8.666,18.443,4.938s8.666-11.984,4.937-18.441c-2.237-3.875-6.11-6.207-10.242-6.656L56.155,52.893z"/>
	<path fill="#FFFFFF" stroke="#000000" stroke-miterlimit="10" d="M20.358,31.56c2.637,0.521,12.244-5.03,13.106-7.583
		c1.026-3.024,0.802-6.455-0.919-9.439c-3.178-5.5-10.207-7.384-15.711-4.209c-5.498,3.174-7.383,10.208-4.207,15.708
		C14.353,29.027,17.222,30.938,20.358,31.56z"/>
	<path fill="#FFFFFF" stroke="#000000" stroke-miterlimit="10" d="M33.377,52.902c-0.866-2.545-10.476-8.088-13.118-7.559
		c-3.133,0.625-5.993,2.533-7.716,5.516c-3.176,5.502-1.291,12.535,4.21,15.711c5.498,3.174,12.533,1.291,15.709-4.211
		C34.188,59.371,34.408,55.932,33.377,52.902z"/>
	<path fill="#0000FF" stroke="#000000" stroke-miterlimit="10" d="M90.496,38.625c0,6.826,5.263,12.412,11.951,12.947l0,0
		l12.784-7.383l0,0c0.803-1.688,1.265-3.57,1.265-5.564c0-7.18-5.82-13-13-13S90.496,31.445,90.496,38.625z"/>
	<g>
		<path fill="#FFFFFF" stroke="#000000" stroke-miterlimit="10" d="M102.447,51.571c-1.125,3.085-0.93,6.625,0.84,9.691
			c3.176,5.5,10.209,7.385,15.709,4.209c5.502-3.176,7.386-10.209,4.21-15.709c-1.771-3.066-4.74-5.006-7.975-5.574L102.447,51.571z
			"/>
		<g>
			<path fill="#FFFFFF" stroke="#000000" stroke-miterlimit="10" d="M72.493,38.598c0,6.352,5.148,11.5,11.5,11.499
				c3.537,0.001,6.698-1.598,8.808-4.11c1.679-1.999,1.685-12.765,0.015-14.761c-2.109-2.521-5.277-4.127-8.822-4.127
				C77.641,27.098,72.493,32.247,72.493,38.598z"/>
		</g>
	</g>
	<path fill="#FFFFFF" stroke="#000000" stroke-miterlimit="10" d="M109.152,16.703c-2.502,2.503-3.606,5.873-3.319,9.143
		c0.228,2.599,7.845,10.215,10.442,10.442c3.27,0.286,6.639-0.818,9.141-3.321c4.492-4.49,4.491-11.771,0.001-16.263
		C120.924,12.212,113.645,12.212,109.152,16.703z"/>
</g>
<g id="outline">
	<g>
		<path fill="none" d="M116.275,36.288c3.27,0.286,6.639-0.818,9.141-3.321c4.492-4.49,4.491-11.771,0.001-16.263
			c-0.264-0.264-0.54-0.51-0.822-0.743c-0.094-0.078-0.192-0.146-0.288-0.22c-0.192-0.149-0.386-0.296-0.586-0.431
			c-0.117-0.08-0.237-0.152-0.357-0.227c-0.186-0.116-0.372-0.228-0.562-0.333c-0.129-0.071-0.26-0.137-0.391-0.203
			c-0.188-0.094-0.376-0.181-0.567-0.264c-0.136-0.059-0.272-0.117-0.411-0.17c-0.194-0.075-0.39-0.142-0.586-0.205
			c-0.138-0.045-0.275-0.092-0.414-0.131c-0.21-0.06-0.422-0.108-0.634-0.155c-0.128-0.028-0.254-0.062-0.383-0.087
			c-0.317-0.059-0.636-0.105-0.957-0.138c-0.127-0.013-0.254-0.016-0.381-0.025c-0.23-0.016-0.461-0.031-0.692-0.033
			c-0.157-0.001-0.312,0.008-0.469,0.013c-0.188,0.006-0.374,0.012-0.561,0.026c-0.167,0.014-0.333,0.035-0.5,0.056
			c-0.176,0.022-0.351,0.046-0.525,0.076c-0.17,0.029-0.339,0.063-0.509,0.1c-0.168,0.037-0.336,0.078-0.503,0.123
			c-0.17,0.045-0.339,0.092-0.508,0.146c-0.164,0.052-0.326,0.111-0.488,0.17c-0.166,0.061-0.333,0.12-0.497,0.189
			c-0.164,0.068-0.323,0.148-0.484,0.224c-0.157,0.075-0.316,0.145-0.471,0.227c-0.242,0.129-0.478,0.273-0.711,0.421
			c-0.052,0.032-0.106,0.059-0.157,0.092c-0.205-0.086-0.411-0.168-0.623-0.243c-0.28-0.103-0.565-0.199-0.86-0.278
			c-6.135-1.645-12.44,1.996-14.084,8.131c-0.118,0.441-0.201,0.882-0.266,1.323c-0.02,0.136-0.03,0.271-0.045,0.406
			c-0.034,0.312-0.058,0.622-0.067,0.931c-0.004,0.147-0.006,0.292-0.004,0.438c0.003,0.317,0.021,0.631,0.051,0.944
			c0.011,0.12,0.017,0.24,0.032,0.359c0.054,0.431,0.127,0.857,0.228,1.275c0,0.001,0,0.001,0,0.001l0,0.001
			c-0.467,0.375-0.902,0.785-1.313,1.219c-0.045,0.048-0.088,0.097-0.132,0.146c-0.396,0.433-0.769,0.886-1.104,1.37
			c-2.109-2.521-5.277-4.127-8.822-4.127c-6.352,0-11.499,5.148-11.5,11.5c0,6.352,5.148,11.5,11.5,11.499
			c3.537,0.001,6.698-1.598,8.808-4.11c1.073,1.554,2.47,2.862,4.102,3.824c0.041,0.024,0.084,0.046,0.126,0.069
			c0.339,0.195,0.686,0.375,1.043,0.539c0.109,0.05,0.221,0.097,0.332,0.145c0.3,0.128,0.605,0.244,0.917,0.35
			c0.136,0.047,0.272,0.093,0.411,0.135c0.31,0.094,0.625,0.172,0.943,0.243c0.134,0.029,0.266,0.065,0.401,0.091
			c0.451,0.085,0.907,0.152,1.373,0.189c-1.125,3.085-0.93,6.625,0.84,9.691c3.176,5.5,10.209,7.385,15.709,4.209
			c5.502-3.176,7.386-10.209,4.21-15.709c-1.771-3.066-4.74-5.006-7.975-5.574c0.803-1.688,1.265-3.57,1.265-5.564
			c0-0.404-0.021-0.802-0.061-1.195c-0.035-0.38-0.091-0.754-0.158-1.125C116.277,36.299,116.276,36.293,116.275,36.288z"/>
		<path fill="none" d="M79.271,50.208c-0.028-0.036-0.061-0.067-0.089-0.104c-2.285-2.976-5.667-4.853-9.2-5.271
			c1.298-2.623,1.737-5.469,1.398-8.201c-0.009-0.071-0.028-0.141-0.038-0.212c-0.066-0.473-0.144-0.943-0.255-1.407
			c-0.063-0.263-0.156-0.518-0.234-0.776c-0.081-0.268-0.146-0.54-0.243-0.802c-0.189-0.519-0.408-1.027-0.657-1.523
			c4.132-0.451,8.003-2.783,10.24-6.658c3.729-6.457,1.515-14.713-4.94-18.441c-6.459-3.729-14.713-1.516-18.441,4.941
			c-2.238,3.876-2.322,8.395-0.646,12.199c-4.378,0.258-8.552,2.498-11.153,6.344c-2.523-3.723-6.735-6.204-11.535-6.36
			c1.011-3.015,0.782-6.427-0.931-9.398c-3.178-5.5-10.207-7.384-15.711-4.209c-5.498,3.174-7.383,10.208-4.207,15.708
			c0.192,0.334,0.404,0.65,0.625,0.957c-0.412-0.044-0.828-0.071-1.251-0.071c-6.352,0-11.5,5.148-11.501,11.5
			c-0.001,6.349,5.149,11.5,11.5,11.5c0.404,0,0.803-0.021,1.196-0.062c-0.231,0.319-0.452,0.65-0.653,1
			c-3.176,5.502-1.291,12.535,4.21,15.711c5.498,3.174,12.533,1.291,15.709-4.211c1.724-2.986,1.945-6.422,0.917-9.449
			c4.841-0.125,9.091-2.613,11.633-6.361c1.19,1.762,2.774,3.295,4.741,4.43c0.501,0.29,1.014,0.545,1.533,0.767
			c0.474,0.202,0.955,0.369,1.439,0.518c0.043,0.013,0.084,0.032,0.127,0.045c1.059,0.314,2.136,0.499,3.214,0.567
			c-1.396,3.246-1.476,7.085-0.073,10.535c0.027,0.067,0.044,0.136,0.072,0.202c0.214,0.502,0.459,0.996,0.737,1.478
			c3.729,6.457,11.986,8.666,18.443,4.938s8.666-11.984,4.937-18.441C79.903,51.104,79.599,50.645,79.271,50.208z"/>
	</g>
</g>
</svg>
