<?xml version="1.0" encoding="utf-8"?>
<!-- Generator: Adobe Illustrator 15.0.0, SVG Export Plug-In . SVG Version: 6.00 Build 0)  -->
<!DOCTYPE svg PUBLIC "-//W3C//DTD SVG 1.1//EN" "http://www.w3.org/Graphics/SVG/1.1/DTD/svg11.dtd">
<svg version="1.1" xmlns="http://www.w3.org/2000/svg" xmlns:xlink="http://www.w3.org/1999/xlink" x="0px" y="0px"
	 width="80.251px" height="52.001px" viewBox="0 0 80.251 52.001" enable-background="new 0 0 80.251 52.001" xml:space="preserve">
<g id="object">
	<path fill="#FFFFFF" stroke="#B1B1B1" stroke-width="10" stroke-miterlimit="10" d="M63.751,22.001
		c-3.505,0-6.639,1.573-8.748,4.046c-2.417-3.643-6.552-6.047-11.252-6.047c-2.948,0-5.667,0.956-7.887,2.559
		c-0.556-0.544-1.228-0.967-1.973-1.239c0.708-5.616-1.928-11.368-7.138-14.376c-6.936-4.004-15.804-1.628-19.808,5.308
		c-4.004,6.935-1.628,15.804,5.308,19.808c5.325,3.074,11.781,2.375,16.308-1.249c0.533,0.426,1.145,0.758,1.812,0.965
		c-0.072,0.566-0.122,1.139-0.122,1.725c0,7.456,6.044,13.5,13.5,13.5c4.699,0,8.834-2.404,11.252-6.047
		c2.109,2.474,5.243,4.047,8.748,4.047c6.351,0,11.5-5.148,11.5-11.5C75.251,27.15,70.102,22.001,63.751,22.001z"/>
	<circle fill="#A900FF" stroke="#000000" stroke-miterlimit="10" cx="19.503" cy="19.502" r="14.5"/>
	<path fill="#FFFFFF" stroke="#000000" stroke-miterlimit="10" d="M63.751,22.001c-3.505,0-6.639,1.573-8.748,4.046v14.907
		c2.109,2.474,5.243,4.047,8.748,4.047c6.351,0,11.5-5.148,11.5-11.5C75.251,27.15,70.102,22.001,63.751,22.001z"/>
	<path fill="#FF0000" stroke="#000000" stroke-miterlimit="10" d="M55.003,26.048c-2.417-3.643-6.552-6.047-11.252-6.047
		c-7.456,0-13.5,6.043-13.5,13.5c0,7.456,6.044,13.5,13.5,13.5c4.699,0,8.834-2.404,11.252-6.047V26.048z"/>
</g>
<g id="outline">
	<path fill="none" d="M63.751,22.001c-3.505,0-6.639,1.573-8.748,4.046c-2.417-3.643-6.552-6.047-11.252-6.047
		c-0.422,0-0.838,0.025-1.25,0.063c-0.145,0.014-0.288,0.035-0.432,0.053c-0.26,0.033-0.517,0.07-0.772,0.118
		c-0.177,0.033-0.352,0.068-0.526,0.107c-0.207,0.047-0.41,0.101-0.612,0.157c-0.198,0.055-0.397,0.107-0.592,0.17
		c-0.107,0.035-0.21,0.078-0.316,0.116c-0.539,0.191-1.062,0.413-1.567,0.667c-0.026,0.013-0.053,0.024-0.079,0.038
		c-0.278,0.143-0.547,0.297-0.813,0.458c-0.042,0.026-0.085,0.052-0.128,0.078c-0.272,0.168-0.538,0.344-0.797,0.531
		c-0.001,0-0.002,0.001-0.003,0.002c-0.556-0.544-1.228-0.967-1.973-1.239c0.009-0.068,0.011-0.136,0.018-0.205
		c0.039-0.351,0.065-0.702,0.079-1.052c0.006-0.147,0.006-0.294,0.007-0.441c0.002-0.286-0.004-0.572-0.019-0.857
		c-0.007-0.142-0.013-0.284-0.024-0.425c-0.032-0.4-0.077-0.798-0.142-1.193c-0.009-0.058-0.023-0.115-0.034-0.172
		c-0.063-0.359-0.142-0.714-0.232-1.067c-0.035-0.135-0.074-0.268-0.112-0.401c-0.081-0.282-0.17-0.561-0.268-0.838
		c-0.044-0.126-0.087-0.253-0.135-0.378c-0.148-0.384-0.307-0.764-0.487-1.135c-0.014-0.028-0.03-0.055-0.044-0.083
		c-0.172-0.348-0.36-0.688-0.56-1.022c-0.068-0.113-0.14-0.223-0.21-0.334c-0.164-0.258-0.336-0.51-0.517-0.758
		c-0.076-0.104-0.151-0.21-0.23-0.312c-0.258-0.334-0.527-0.663-0.816-0.976c-0.008-0.009-0.017-0.017-0.025-0.026
		c-0.283-0.305-0.584-0.596-0.896-0.878c-0.097-0.087-0.197-0.171-0.296-0.256c-0.243-0.208-0.495-0.41-0.754-0.604
		c-0.104-0.079-0.208-0.158-0.315-0.234c-0.362-0.255-0.733-0.501-1.124-0.727c-6.936-4.004-15.804-1.628-19.808,5.308
		c-4.004,6.935-1.628,15.804,5.308,19.808c0.392,0.227,0.792,0.426,1.195,0.612c0.125,0.058,0.251,0.109,0.377,0.163
		c0.288,0.123,0.577,0.236,0.868,0.339c0.14,0.049,0.279,0.099,0.419,0.144c0.316,0.1,0.633,0.188,0.952,0.265
		c0.104,0.025,0.206,0.057,0.31,0.08c0.401,0.088,0.803,0.157,1.207,0.21c0.163,0.021,0.326,0.033,0.489,0.049
		c0.251,0.024,0.502,0.045,0.753,0.056c0.195,0.009,0.39,0.014,0.584,0.015c0.217,0.001,0.434-0.005,0.65-0.014
		c0.208-0.008,0.415-0.013,0.622-0.03c0.181-0.015,0.36-0.042,0.54-0.064c0.438-0.053,0.873-0.125,1.303-0.217
		c0.13-0.028,0.261-0.053,0.391-0.085c0.266-0.064,0.528-0.139,0.791-0.218c0.105-0.032,0.21-0.066,0.314-0.101
		c1.269-0.416,2.479-1.006,3.599-1.762c0.045-0.031,0.091-0.062,0.136-0.093c0.275-0.19,0.544-0.388,0.807-0.598
		c0,0,0-0.001,0.001-0.001c0.533,0.426,1.145,0.758,1.812,0.965c0,0.001,0,0.003,0,0.004c-0.028,0.219-0.051,0.438-0.068,0.661
		c-0.031,0.35-0.054,0.702-0.054,1.06c0,7.456,6.044,13.5,13.5,13.5c4.699,0,8.834-2.404,11.252-6.047
		c2.109,2.474,5.243,4.047,8.748,4.047c6.351,0,11.5-5.148,11.5-11.5C75.251,27.15,70.102,22.001,63.751,22.001z"/>
</g>
</svg>
