<?xml version="1.0" encoding="utf-8"?>
<!-- Generator: Adobe Illustrator 15.0.0, SVG Export Plug-In . SVG Version: 6.00 Build 0)  -->
<!DOCTYPE svg PUBLIC "-//W3C//DTD SVG 1.1//EN" "http://www.w3.org/Graphics/SVG/1.1/DTD/svg11.dtd">
<svg version="1.1" xmlns="http://www.w3.org/2000/svg" xmlns:xlink="http://www.w3.org/1999/xlink" x="0px" y="0px"
	 width="73.906px" height="45.753px" viewBox="0 0 73.906 45.753" enable-background="new 0 0 73.906 45.753" xml:space="preserve">
<g id="object">
	<g>
		<path fill="#FF0000" stroke="#000000" stroke-miterlimit="10" d="M66.654,20.06c-3.719-2.147-8.032-2.314-11.736-0.844
			l-8.362,14.491c0.581,3.94,2.88,7.589,6.598,9.734c6.457,3.729,14.714,1.516,18.441-4.941
			C75.323,32.043,73.111,23.787,66.654,20.06z"/>
		<path fill="#FF0000" stroke="#000000" stroke-miterlimit="10" d="M18.99,19.218c-3.705-1.472-8.018-1.305-11.737,0.843
			c-6.458,3.729-8.67,11.985-4.941,18.441c3.727,6.457,11.984,8.668,18.44,4.94c3.718-2.146,6.019-5.796,6.599-9.736L18.99,19.218z"
			/>
		<path fill="#550000" stroke="#000000" stroke-miterlimit="10" d="M54.918,19.216c0.009-0.239,0.036-0.474,0.036-0.716
			c0-9.941-8.059-18-18-18s-18,8.059-18,18c0,0.242,0.027,0.478,0.036,0.718l8.36,14.488c2.781,1.76,6.068,2.794,9.604,2.794
			c3.535,0,6.821-1.033,9.602-2.793L54.918,19.216z"/>
	</g>
</g>
<g id="outline">
	<path fill="none" d="M66.654,20.06c-3.719-2.147-8.032-2.314-11.736-0.844c0.009-0.239,0.036-0.474,0.036-0.716
		c0-9.941-8.059-18-18-18s-18,8.059-18,18c0,0.242,0.027,0.478,0.036,0.718c-3.705-1.472-8.018-1.305-11.737,0.843
		c-6.458,3.729-8.67,11.985-4.941,18.441c3.727,6.457,11.984,8.668,18.44,4.94c3.718-2.146,6.019-5.796,6.599-9.736
		c2.781,1.76,6.068,2.794,9.604,2.794c3.535,0,6.821-1.033,9.602-2.793c0.581,3.94,2.88,7.589,6.598,9.734
		c6.457,3.729,14.714,1.516,18.441-4.941C75.323,32.043,73.111,23.787,66.654,20.06z"/>
</g>
</svg>
