<?xml version="1.0" encoding="utf-8"?>
<!-- Generator: Adobe Illustrator 15.0.0, SVG Export Plug-In . SVG Version: 6.00 Build 0)  -->
<!DOCTYPE svg PUBLIC "-//W3C//DTD SVG 1.1//EN" "http://www.w3.org/Graphics/SVG/1.1/DTD/svg11.dtd">
<svg version="1.1" xmlns="http://www.w3.org/2000/svg" xmlns:xlink="http://www.w3.org/1999/xlink" x="0px" y="0px"
	 width="83.983px" height="55.003px" viewBox="0 0 83.983 55.003" enable-background="new 0 0 83.983 55.003" xml:space="preserve">
<g id="object">
	<path fill="#FFFFFF" stroke="#B1B1B1" stroke-width="10" stroke-miterlimit="10" d="M67.483,25.003
		c-3.505,0-6.639,1.573-8.748,4.046c-2.417-3.643-6.552-6.047-11.252-6.047c-3.022,0-5.803,1.005-8.053,2.683
		c-0.508-0.443-1.098-0.792-1.744-1.025c1.311-6.724-1.668-13.828-7.934-17.446C21.861,2.657,11.77,5.36,7.213,13.253
		c-4.556,7.891-1.853,17.984,6.039,22.54c6.222,3.592,13.801,2.654,18.967-1.763c0.535,0.459,1.157,0.817,1.84,1.045
		c-0.049,0.469-0.077,0.945-0.077,1.427c0,7.456,6.044,13.5,13.5,13.5c4.699,0,8.834-2.404,11.252-6.047
		c2.109,2.474,5.243,4.047,8.748,4.047c6.351,0,11.5-5.148,11.5-11.5C78.983,30.152,73.833,25.003,67.483,25.003z"/>
	<circle fill="#5F5F5F" stroke="#000000" stroke-miterlimit="10" cx="21.503" cy="21.503" r="16.5"/>
	<g>
		<path fill="#FFFFFF" stroke="#000000" stroke-miterlimit="10" d="M67.483,25.003c-3.505,0-6.639,1.573-8.748,4.046v14.907
			c2.109,2.474,5.243,4.047,8.748,4.047c6.351,0,11.5-5.148,11.5-11.5C78.983,30.152,73.833,25.003,67.483,25.003z"/>
		<path fill="#FF0000" stroke="#000000" stroke-miterlimit="10" d="M58.735,29.049c-2.417-3.643-6.552-6.047-11.252-6.047
			c-7.456,0-13.5,6.043-13.5,13.5c0,7.456,6.044,13.5,13.5,13.5c4.699,0,8.834-2.404,11.252-6.047V29.049z"/>
	</g>
</g>
<g id="outline">
	<path fill="none" d="M67.483,25.003c-3.505,0-6.639,1.573-8.748,4.046c-2.417-3.643-6.552-6.047-11.252-6.047
		c-0.425,0-0.844,0.025-1.258,0.063c-0.151,0.014-0.299,0.037-0.449,0.056c-0.255,0.033-0.508,0.069-0.759,0.116
		c-0.188,0.035-0.374,0.075-0.559,0.117c-0.193,0.044-0.384,0.094-0.574,0.147c-0.217,0.06-0.433,0.121-0.646,0.191
		c-0.11,0.037-0.216,0.08-0.325,0.119c-1.259,0.454-2.429,1.087-3.483,1.873c-0.508-0.443-1.098-0.792-1.744-1.025
		c0-0.002,0-0.005,0.001-0.008c0.24-1.234,0.334-2.478,0.291-3.713c-0.001-0.035-0.001-0.07-0.002-0.105
		c-0.015-0.37-0.045-0.738-0.085-1.105c-0.01-0.089-0.021-0.179-0.032-0.268c-0.044-0.355-0.096-0.708-0.163-1.059
		c-0.013-0.067-0.03-0.132-0.043-0.199c-0.156-0.762-0.357-1.513-0.619-2.246c-0.002-0.006-0.004-0.012-0.006-0.019
		c-0.097-0.271-0.209-0.536-0.32-0.801c-0.075-0.18-0.149-0.359-0.23-0.537c-0.108-0.235-0.223-0.467-0.343-0.698
		c-0.107-0.208-0.222-0.413-0.338-0.617c-0.117-0.203-0.232-0.406-0.357-0.605c-0.17-0.27-0.354-0.531-0.54-0.792
		c-0.104-0.146-0.203-0.293-0.312-0.436c-0.271-0.354-0.56-0.697-0.861-1.03c-0.115-0.127-0.239-0.248-0.358-0.372
		c-0.229-0.238-0.465-0.471-0.71-0.696c-0.134-0.124-0.271-0.244-0.411-0.363c-0.261-0.225-0.533-0.44-0.811-0.649
		c-0.13-0.098-0.256-0.198-0.389-0.292c-0.416-0.294-0.844-0.577-1.293-0.836C21.861,2.657,11.77,5.36,7.213,13.253
		c-4.556,7.891-1.853,17.984,6.039,22.54c0.449,0.259,0.907,0.488,1.369,0.701c0.146,0.067,0.294,0.125,0.442,0.188
		c0.322,0.137,0.646,0.265,0.974,0.38c0.17,0.06,0.34,0.118,0.511,0.172c0.323,0.102,0.647,0.19,0.973,0.271
		c0.161,0.04,0.321,0.085,0.483,0.12c0.458,0.1,0.917,0.182,1.378,0.24c0.178,0.023,0.356,0.031,0.535,0.049
		c0.294,0.027,0.588,0.054,0.882,0.065c0.241,0.01,0.481,0.01,0.723,0.009c0.224,0,0.446-0.005,0.669-0.015
		c0.268-0.012,0.535-0.026,0.801-0.051c0.171-0.016,0.342-0.04,0.512-0.062c1.072-0.132,2.126-0.367,3.151-0.704
		c0.058-0.019,0.117-0.036,0.175-0.056c0.354-0.121,0.703-0.256,1.048-0.4c0.052-0.022,0.104-0.044,0.155-0.066
		c1.503-0.647,2.913-1.518,4.181-2.601c0.002-0.001,0.004-0.003,0.006-0.004c0.535,0.459,1.157,0.817,1.84,1.045c0,0,0,0,0,0.001
		c-0.049,0.469-0.077,0.944-0.077,1.426c0,7.456,6.044,13.5,13.5,13.5c4.699,0,8.834-2.404,11.252-6.047
		c2.109,2.474,5.243,4.047,8.748,4.047c6.351,0,11.5-5.148,11.5-11.5C78.983,30.152,73.833,25.003,67.483,25.003z"/>
</g>
</svg>
