<?xml version="1.0" encoding="utf-8"?>
<!-- Generator: Adobe Illustrator 15.0.0, SVG Export Plug-In . SVG Version: 6.00 Build 0)  -->
<!DOCTYPE svg PUBLIC "-//W3C//DTD SVG 1.1//EN" "http://www.w3.org/Graphics/SVG/1.1/DTD/svg11.dtd">
<svg version="1.1" xmlns="http://www.w3.org/2000/svg" xmlns:xlink="http://www.w3.org/1999/xlink" x="0px" y="0px"
	 width="112.492px" height="76.84px" viewBox="0 0 112.492 76.84" enable-background="new 0 0 112.492 76.84" xml:space="preserve">
<g id="object">
	<circle fill="none" cx="71.492" cy="38.421" r="16.5"/>
	<circle fill="#5F5F5F" stroke="#B1B1B1" stroke-width="10" stroke-miterlimit="10" cx="90.992" cy="38.421" r="16.5"/>
	<path fill="#FFFFFF" stroke="#B1B1B1" stroke-width="10" stroke-miterlimit="10" d="M80.182,51.586
		c-2.216-3.838-6.111-6.27-10.201-6.754c2.077-4.197,1.953-8.972-0.027-12.921c4.132-0.451,8.003-2.783,10.24-6.658
		c3.729-6.457,1.515-14.713-4.94-18.441c-6.459-3.729-14.713-1.516-18.441,4.941c-2.238,3.876-2.322,8.395-0.646,12.199
		c-4.378,0.258-8.552,2.498-11.153,6.344v16.253c1.19,1.762,2.774,3.295,4.741,4.43c1.998,1.154,4.156,1.758,6.312,1.896
		c-1.627,3.783-1.481,8.375,0.736,12.215c3.729,6.457,11.986,8.666,18.443,4.938S83.911,58.043,80.182,51.586z"/>
	<circle fill="#5F5F5F" stroke="#000000" stroke-miterlimit="10" cx="90.992" cy="38.421" r="16.5"/>
	<circle fill="#FFFFFF" stroke="#000000" stroke-miterlimit="10" cx="12" cy="38.422" r="11.5"/>
	<path fill="#2F2F2F" stroke="#000000" stroke-miterlimit="10" d="M45.012,30.295c-2.606-3.846-7.013-6.374-12.01-6.375
		c-8.007,0.002-14.499,6.492-14.499,14.501c0,8.008,6.492,14.5,14.498,14.5c4.998,0,9.402-2.527,12.011-6.373V30.295z"/>
	<path fill="#2F2F2F" stroke="#000000" stroke-miterlimit="10" d="M69.939,44.93c2.127-4.221,2.009-9.039,0.014-13.019
		l-13.788-7.959c-4.378,0.258-8.552,2.498-11.153,6.344v16.253c1.19,1.762,2.774,3.295,4.741,4.43
		c2.029,1.172,4.224,1.783,6.414,1.908L69.939,44.93z"/>
	<path fill="#FF0000" stroke="#000000" stroke-miterlimit="10" d="M69.953,31.911c4.132-0.451,8.003-2.783,10.24-6.658
		c3.729-6.457,1.515-14.713-4.94-18.441c-6.459-3.729-14.713-1.516-18.441,4.941c-2.238,3.876-2.322,8.395-0.646,12.199
		L69.953,31.911z"/>
	<path fill="#FF0000" stroke="#000000" stroke-miterlimit="10" d="M56.155,52.893c-1.675,3.805-1.59,8.322,0.646,12.197
		c3.729,6.457,11.986,8.666,18.443,4.938s8.666-11.984,4.937-18.441c-2.237-3.875-6.11-6.207-10.242-6.656L56.155,52.893z"/>
	<path fill="#FFFFFF" stroke="#000000" stroke-miterlimit="10" d="M20.358,31.56c2.637,0.521,12.244-5.03,13.106-7.583
		c1.026-3.024,0.802-6.455-0.919-9.439c-3.178-5.5-10.207-7.384-15.711-4.209c-5.498,3.174-7.383,10.208-4.207,15.708
		C14.353,29.027,17.222,30.938,20.358,31.56z"/>
	<path fill="#FFFFFF" stroke="#000000" stroke-miterlimit="10" d="M33.377,52.902c-0.866-2.545-10.476-8.088-13.118-7.559
		c-3.133,0.625-5.993,2.533-7.716,5.516c-3.176,5.502-1.291,12.535,4.21,15.711c5.498,3.174,12.533,1.291,15.709-4.211
		C34.188,59.371,34.408,55.932,33.377,52.902z"/>
</g>
<g id="outline">
	<path fill="none" d="M90.992,21.921c-3.652,0-7.017,1.201-9.75,3.21c-0.238-0.175-0.476-0.351-0.724-0.513
		c3.239-6.355,0.981-14.198-5.266-17.807c-6.459-3.729-14.713-1.516-18.441,4.941c-2.238,3.876-2.322,8.395-0.646,12.199
		c-4.378,0.258-8.552,2.498-11.153,6.344c-2.523-3.723-6.735-6.204-11.535-6.36c1.011-3.015,0.782-6.427-0.931-9.398
		c-3.178-5.5-10.207-7.384-15.711-4.209c-5.498,3.174-7.383,10.208-4.207,15.708c0.192,0.334,0.404,0.65,0.625,0.957
		c-0.412-0.044-0.828-0.071-1.251-0.071c-6.352,0-11.5,5.148-11.501,11.5c-0.001,6.349,5.149,11.5,11.5,11.5
		c0.404,0,0.803-0.021,1.196-0.062c-0.231,0.319-0.452,0.65-0.653,1c-3.176,5.502-1.291,12.535,4.21,15.711
		c5.498,3.174,12.533,1.291,15.709-4.211c1.724-2.986,1.945-6.422,0.917-9.449c4.841-0.125,9.091-2.613,11.633-6.361
		c1.19,1.762,2.774,3.295,4.741,4.43c0.501,0.29,1.014,0.545,1.533,0.767c0.474,0.202,0.955,0.369,1.439,0.518
		c0.043,0.013,0.084,0.032,0.127,0.045c1.059,0.314,2.136,0.499,3.214,0.567c-1.396,3.246-1.476,7.085-0.073,10.535
		c0.027,0.067,0.044,0.136,0.072,0.202c0.214,0.502,0.459,0.996,0.737,1.478c3.729,6.457,11.986,8.666,18.443,4.938
		c6.246-3.606,8.5-11.445,5.266-17.799c0.251-0.164,0.49-0.341,0.731-0.519c2.733,2.01,6.098,3.211,9.75,3.211
		c9.113,0,16.5-7.389,16.5-16.5C107.492,29.308,100.105,21.921,90.992,21.921z"/>
</g>
</svg>
