<?xml version="1.0" encoding="utf-8"?>
<!-- Generator: Adobe Illustrator 15.0.0, SVG Export Plug-In . SVG Version: 6.00 Build 0)  -->
<!DOCTYPE svg PUBLIC "-//W3C//DTD SVG 1.1//EN" "http://www.w3.org/Graphics/SVG/1.1/DTD/svg11.dtd">
<svg version="1.1" xmlns="http://www.w3.org/2000/svg" xmlns:xlink="http://www.w3.org/1999/xlink" x="0px" y="0px" width="84.5px"
	 height="44px" viewBox="0 0 84.5 44" enable-background="new 0 0 84.5 44" xml:space="preserve">
<g id="object">
	<circle fill="#FFFFFF" stroke="#B1B1B1" stroke-width="10" stroke-miterlimit="10" cx="22" cy="22" r="17"/>
	<g>
		<path fill="#2F2F2F" stroke="#000000" stroke-miterlimit="10" d="M60.669,14.131C58.086,10.144,53.606,7.5,48.5,7.5
			c-4.85,0-9.132,2.39-11.765,6.046v16.907C39.368,34.11,43.65,36.5,48.5,36.5c5.105,0,9.586-2.645,12.169-6.632V14.131z"/>
		<path fill="#0000FF" stroke="#000000" stroke-miterlimit="10" d="M71,9c-4.218,0-7.956,2.018-10.331,5.131v15.737
			C63.044,32.982,66.781,35,71,35c7.18,0,13-5.82,13-13S78.18,9,71,9z"/>
		<path fill="#FFFF00" stroke="#000000" stroke-miterlimit="10" d="M36.735,13.546C33.801,8.444,28.308,5,22,5
			C12.611,5,5,12.611,5,22s7.611,17,17,17c6.308,0,11.802-3.444,14.735-8.547V13.546z"/>
	</g>
</g>
<g id="outline">
	<path fill="none" d="M71,9c-4.218,0-7.956,2.018-10.331,5.131C58.086,10.144,53.606,7.5,48.5,7.5c-4.85,0-9.132,2.39-11.765,6.046
		c-0.002-0.003-0.004-0.006-0.005-0.009c-0.333-0.578-0.701-1.13-1.097-1.662c-0.062-0.083-0.124-0.168-0.188-0.25
		c-0.194-0.251-0.391-0.497-0.599-0.736c-0.052-0.06-0.107-0.117-0.16-0.177c-0.368-0.413-0.755-0.808-1.162-1.183
		c-0.124-0.115-0.247-0.229-0.374-0.34c-0.202-0.176-0.407-0.349-0.617-0.516c-0.19-0.151-0.387-0.293-0.583-0.436
		c-0.28-0.203-0.565-0.397-0.857-0.583c-0.23-0.146-0.462-0.289-0.699-0.424c-0.179-0.102-0.359-0.202-0.542-0.298
		c-0.348-0.182-0.701-0.354-1.062-0.512C28.648,6.357,28.504,6.3,28.36,6.242C28.009,6.1,27.653,5.97,27.291,5.851
		c-0.149-0.049-0.297-0.096-0.448-0.141c-0.458-0.137-0.921-0.261-1.395-0.359c-0.039-0.008-0.079-0.013-0.118-0.021
		c-0.457-0.091-0.921-0.159-1.39-0.212c-0.132-0.015-0.264-0.029-0.396-0.041C23.035,5.032,22.521,5,22,5C12.611,5,5,12.611,5,22
		s7.611,17,17,17c0.521,0,1.035-0.032,1.544-0.078c0.132-0.012,0.264-0.025,0.396-0.04c0.469-0.054,0.934-0.122,1.391-0.213
		c0.039-0.008,0.078-0.012,0.117-0.02c0.474-0.099,0.938-0.223,1.396-0.359c0.15-0.044,0.298-0.092,0.447-0.141
		c0.364-0.119,0.722-0.25,1.074-0.393c0.141-0.058,0.281-0.112,0.419-0.173c0.364-0.159,0.72-0.332,1.07-0.516
		c0.183-0.096,0.362-0.195,0.542-0.298c0.238-0.136,0.47-0.278,0.701-0.426c0.291-0.185,0.574-0.378,0.853-0.579
		c0.198-0.145,0.396-0.287,0.586-0.439c0.21-0.166,0.414-0.338,0.616-0.515c0.128-0.111,0.252-0.227,0.376-0.342
		c0.406-0.376,0.793-0.771,1.162-1.184c0.052-0.059,0.107-0.115,0.159-0.175c0.208-0.239,0.406-0.486,0.6-0.738
		c0.062-0.081,0.123-0.163,0.184-0.246c0.399-0.535,0.77-1.092,1.104-1.674C39.368,34.11,43.65,36.5,48.5,36.5
		c5.105,0,9.586-2.645,12.169-6.632C63.044,32.982,66.781,35,71,35c7.18,0,13-5.82,13-13S78.18,9,71,9z"/>
</g>
</svg>
