<?xml version="1.0" encoding="utf-8"?>
<!-- Generator: Adobe Illustrator 15.0.2, SVG Export Plug-In . SVG Version: 6.00 Build 0)  -->
<!DOCTYPE svg PUBLIC "-//W3C//DTD SVG 1.1//EN" "http://www.w3.org/Graphics/SVG/1.1/DTD/svg11.dtd">
<svg version="1.1" xmlns="http://www.w3.org/2000/svg" xmlns:xlink="http://www.w3.org/1999/xlink" x="0px" y="0px" width="51px"
	 height="51px" viewBox="0 0 51 51" enable-background="new 0 0 51 51" xml:space="preserve">
<g id="object">
	<circle fill="#FFFFFF" stroke="#000000" stroke-miterlimit="10" cx="25.5" cy="25.5" r="25"/>
	<path d="M15.533,20.938v8.083H14.49v-8.083H15.533z"/>
	<path d="M17.442,24.788c0-0.6-0.012-1.091-0.048-1.571h0.936l0.06,0.959h0.024c0.288-0.552,0.959-1.091,1.919-1.091
		c0.803,0,2.051,0.479,2.051,2.47v3.466h-1.056v-3.346c0-0.936-0.348-1.715-1.343-1.715c-0.695,0-1.235,0.492-1.415,1.079
		c-0.048,0.132-0.072,0.312-0.072,0.492v3.49h-1.056V24.788z"/>
	<path d="M24.69,26.312c0.024,1.427,0.935,2.015,1.991,2.015c0.755,0,1.212-0.132,1.606-0.3l0.181,0.756
		c-0.372,0.168-1.007,0.372-1.931,0.372c-1.788,0-2.855-1.188-2.855-2.939c0-1.751,1.032-3.13,2.723-3.13
		c1.895,0,2.399,1.667,2.399,2.734c0,0.216-0.024,0.384-0.036,0.492H24.69z M27.784,25.556c0.012-0.671-0.276-1.715-1.463-1.715
		c-1.067,0-1.535,0.983-1.619,1.715H27.784z"/>
	<path d="M30.113,25.028c0-0.684-0.012-1.271-0.047-1.811h0.923l0.036,1.139h0.048c0.264-0.779,0.899-1.271,1.606-1.271
		c0.121,0,0.205,0.012,0.301,0.036v0.996c-0.108-0.024-0.216-0.036-0.359-0.036c-0.744,0-1.271,0.564-1.416,1.355
		c-0.023,0.144-0.048,0.312-0.048,0.492v3.094h-1.044V25.028z"/>
	<path d="M35.597,21.826v1.392h1.512v0.803h-1.512v3.13c0,0.721,0.204,1.128,0.792,1.128c0.288,0,0.456-0.024,0.611-0.071
		l0.048,0.791c-0.203,0.084-0.527,0.156-0.936,0.156c-0.491,0-0.887-0.168-1.139-0.456c-0.3-0.312-0.408-0.827-0.408-1.511v-3.167
		h-0.899v-0.803h0.899V22.15L35.597,21.826z"/>
	<path fill="#929497" stroke="#000000" stroke-miterlimit="10" d="M50.5,25.5c0,13.807-11.192,25-25,25c-13.807,0-25-11.193-25-25
		c0-13.808,11.193-25,25-25C39.308,0.5,50.5,11.692,50.5,25.5z M25.5,7.25c-10.079,0-18.25,8.17-18.25,18.25
		c0,10.078,8.17,18.25,18.25,18.25s18.25-8.172,18.25-18.25C43.75,15.42,35.579,7.25,25.5,7.25z"/>
</g>
<g id="circles">
	<circle id="Inert" fill="none" cx="25.5" cy="25.5" r="25"/>
</g>
</svg>
