<?xml version="1.0" encoding="utf-8"?>
<!-- Generator: Adobe Illustrator 15.0.0, SVG Export Plug-In . SVG Version: 6.00 Build 0)  -->
<!DOCTYPE svg PUBLIC "-//W3C//DTD SVG 1.1//EN" "http://www.w3.org/Graphics/SVG/1.1/DTD/svg11.dtd">
<svg version="1.1" xmlns="http://www.w3.org/2000/svg" xmlns:xlink="http://www.w3.org/1999/xlink" x="0px" y="0px"
	 width="79.505px" height="76.842px" viewBox="0 0 79.505 76.842" enable-background="new 0 0 79.505 76.842" xml:space="preserve">
<g id="object">
	<g>
		<path fill="#FFFFFF" stroke="#B1B1B1" stroke-width="10" stroke-miterlimit="10" d="M17.059,31.911
			c-0.987,1.959-1.556,4.166-1.556,6.51s0.569,4.55,1.556,6.509c-4.135,0.449-8.009,2.781-10.248,6.659
			c-3.728,6.456-1.517,14.713,4.941,18.441c6.457,3.729,14.714,1.516,18.441-4.941c2.24-3.88,2.322-8.403,0.641-12.21
			c4.719-0.269,8.833-2.779,11.282-6.499c2.457,3.354,6.412,5.541,10.887,5.541c7.457,0,13.5-6.045,13.5-13.5
			c0-2.165-0.522-4.203-1.427-6.016c3.2-0.588,6.132-2.516,7.886-5.554c3.176-5.5,1.292-12.533-4.209-15.709
			c-5.5-3.176-12.534-1.291-15.709,4.209c-1.755,3.04-1.958,6.545-0.866,9.611c-4.134,0.25-7.758,2.354-10.062,5.499
			c-2.449-3.719-6.562-6.23-11.281-6.499c1.682-3.806,1.6-8.33-0.641-12.21c-3.728-6.456-11.983-8.669-18.441-4.941
			c-6.457,3.728-8.668,11.985-4.941,18.441C9.05,29.13,12.924,31.462,17.059,31.911z"/>
	</g>
	<g>
		<path fill="#2F2F2F" stroke="#000000" stroke-miterlimit="10" d="M42.116,30.461c-2.449-3.719-6.562-6.23-11.281-6.499
			l-13.776,7.949c-0.987,1.959-1.556,4.166-1.556,6.51s0.569,4.55,1.556,6.509l13.775,7.949c4.719-0.269,8.833-2.779,11.282-6.499
			V30.461z"/>
		<path fill="#FF0000" stroke="#000000" stroke-miterlimit="10" d="M30.835,23.962c1.682-3.806,1.6-8.33-0.641-12.21
			c-3.728-6.456-11.983-8.669-18.441-4.941c-6.457,3.728-8.668,11.985-4.941,18.441c2.239,3.878,6.113,6.21,10.248,6.659
			C17.059,31.911,30.558,23.947,30.835,23.962z"/>
		<path fill="#FF0000" stroke="#000000" stroke-miterlimit="10" d="M17.059,44.93c-4.135,0.449-8.009,2.781-10.248,6.659
			c-3.728,6.456-1.517,14.713,4.941,18.441c6.457,3.729,14.714,1.516,18.441-4.941c2.24-3.88,2.322-8.403,0.641-12.21L17.059,44.93z
			"/>
		<path fill="#FF0000" stroke="#000000" stroke-miterlimit="10" d="M52.178,24.962c-4.134,0.25-7.758,2.354-10.062,5.499V46.38
			c2.457,3.354,6.412,5.541,10.887,5.541c7.457,0,13.5-6.045,13.5-13.5c0-2.165-0.522-4.203-1.427-6.016L52.178,24.962z"/>
		<path fill="#FFFFFF" stroke="#000000" stroke-miterlimit="10" d="M68.753,11.142c-5.5-3.176-12.534-1.291-15.709,4.209
			c-1.755,3.04-1.958,6.545-0.866,9.611l12.898,7.443c3.2-0.588,6.132-2.516,7.886-5.554C76.138,21.351,74.254,14.317,68.753,11.142
			z"/>
	</g>
</g>
<g id="outline">
	<path fill="none" d="M68.753,11.142c-5.5-3.176-12.534-1.291-15.709,4.209c-1.755,3.04-1.958,6.545-0.866,9.611
		c-4.134,0.25-7.758,2.354-10.062,5.499c-2.449-3.719-6.562-6.23-11.281-6.499c1.682-3.806,1.6-8.33-0.641-12.21
		c-3.728-6.456-11.983-8.669-18.441-4.941c-6.457,3.728-8.668,11.985-4.941,18.441c2.239,3.878,6.113,6.21,10.248,6.659
		c-0.987,1.959-1.556,4.166-1.556,6.51s0.569,4.55,1.556,6.509c-4.135,0.449-8.009,2.781-10.248,6.659
		c-3.728,6.456-1.517,14.713,4.941,18.441c6.457,3.729,14.714,1.516,18.441-4.941c2.24-3.88,2.322-8.403,0.641-12.21
		c4.719-0.269,8.833-2.779,11.282-6.499c2.457,3.354,6.412,5.541,10.887,5.541c7.457,0,13.5-6.045,13.5-13.5
		c0-2.165-0.522-4.203-1.427-6.016c3.2-0.588,6.132-2.516,7.886-5.554C76.138,21.351,74.254,14.317,68.753,11.142z"/>
</g>
</svg>
