<?xml version="1.0" encoding="utf-8"?>
<!-- Generator: Adobe Illustrator 15.0.0, SVG Export Plug-In . SVG Version: 6.00 Build 0)  -->
<!DOCTYPE svg PUBLIC "-//W3C//DTD SVG 1.1//EN" "http://www.w3.org/Graphics/SVG/1.1/DTD/svg11.dtd">
<svg version="1.1" xmlns="http://www.w3.org/2000/svg" xmlns:xlink="http://www.w3.org/1999/xlink" x="0px" y="0px"
	 width="77.266px" height="52.946px" viewBox="0 0 77.266 52.946" enable-background="new 0 0 77.266 52.946" xml:space="preserve">
<g id="object">
	<circle fill="#00FF00" stroke="#000000" stroke-miterlimit="10" cx="57.318" cy="19.5" r="16.5"/>
	<g>
		<g>
			<path fill="#FF00FF" stroke="#000000" stroke-miterlimit="10" d="M40.818,0.5c-8.585,0-15.572,6.768-15.962,15.257l0,0
				l8.625,14.951c2.199,1.138,4.69,1.792,7.338,1.792c8.836,0,16-7.164,16-16C56.818,7.664,49.654,0.5,40.818,0.5z"/>
			<path fill="#00FF00" stroke="#000000" stroke-miterlimit="10" d="M24.856,15.757c-4.874-2.635-10.953-2.771-16.103,0.203
				C0.86,20.517-1.843,30.607,2.713,38.5c4.557,7.892,14.647,10.596,22.54,6.039c5.146-2.972,8.068-8.298,8.228-13.831l0,0
				L24.856,15.757z"/>
		</g>
		<path fill="#00FF00" stroke="#000000" stroke-miterlimit="10" d="M71.932,24.277c-4.201-4.201-10.101-5.645-15.486-4.367
			c-2.874,0.682-11.533,9.342-12.215,12.217c-1.277,5.386,0.166,11.284,4.367,15.485c6.444,6.444,16.891,6.444,23.334,0.001
			C78.377,41.168,78.377,30.723,71.932,24.277z"/>
	</g>
</g>
<g id="outline">
	<path fill="none" d="M72.78,25.216c0.66-1.784,1.038-3.704,1.038-5.716c0-9.113-7.387-16.5-16.5-16.5
		c-2.209,0-4.313,0.442-6.239,1.229C48.301,1.904,44.725,0.5,40.818,0.5c-8.585,0-15.572,6.768-15.962,15.257
		c-4.874-2.635-10.953-2.771-16.103,0.203C0.86,20.517-1.843,30.607,2.713,38.5c4.557,7.892,14.647,10.596,22.54,6.039
		c5.146-2.972,8.068-8.298,8.228-13.831c2.199,1.138,4.69,1.792,7.338,1.792c1.172,0,2.312-0.134,3.412-0.374c0,0,0,0,0,0
		c-1.277,5.386,0.166,11.284,4.367,15.485c6.444,6.444,16.891,6.444,23.334,0.001C78.075,41.47,78.349,31.7,72.78,25.216z"/>
</g>
</svg>
