<?xml version="1.0" encoding="utf-8"?>
<!-- Generator: Adobe Illustrator 15.0.0, SVG Export Plug-In . SVG Version: 6.00 Build 0)  -->
<!DOCTYPE svg PUBLIC "-//W3C//DTD SVG 1.1//EN" "http://www.w3.org/Graphics/SVG/1.1/DTD/svg11.dtd">
<svg version="1.1" xmlns="http://www.w3.org/2000/svg" xmlns:xlink="http://www.w3.org/1999/xlink" x="0px" y="0px"
	 width="103.001px" height="71.509px" viewBox="0 0 103.001 71.509" enable-background="new 0 0 103.001 71.509"
	 xml:space="preserve">
<g id="object">
	<circle fill="#5F5F5F" stroke="#B1B1B1" stroke-width="10" stroke-miterlimit="10" cx="21.5" cy="47.123" r="16.5"/>
	<circle fill="#5F5F5F" stroke="#B1B1B1" stroke-width="10" stroke-miterlimit="10" cx="81.501" cy="47.123" r="16.5"/>
	<g>
		<path fill="#FFFFFF" stroke="#B1B1B1" stroke-width="10" stroke-miterlimit="10" d="M43.548,42.117
			c-3.358,2.457-5.549,6.416-5.548,10.896c0.004,7.456,6.049,13.498,13.507,13.496c7.454-0.002,13.497-6.051,13.494-13.505
			c-0.001-4.478-2.19-8.434-5.547-10.889c3.719-2.448,6.229-6.562,6.498-11.281c3.806,1.682,8.33,1.6,12.21-0.641
			c6.456-3.728,8.67-11.983,4.941-18.441c-3.729-6.457-11.986-8.668-18.442-4.941c-3.878,2.239-6.21,6.113-6.659,10.248
			c-1.959-0.987-4.166-1.556-6.51-1.556s-4.55,0.569-6.509,1.556c-0.449-4.135-2.781-8.009-6.659-10.248
			c-6.456-3.728-14.713-1.517-18.441,4.941c-3.729,6.457-1.516,14.714,4.941,18.441c3.88,2.24,8.403,2.322,12.21,0.641
			c0.269,4.719,2.779,8.833,6.499,11.282H43.548z"/>
	</g>
	<g>
		<path fill="#2F2F2F" stroke="#000000" stroke-miterlimit="10" d="M59.453,42.117c3.719-2.449,6.23-6.563,6.499-11.282
			l-7.949-13.776c-1.959-0.987-4.166-1.556-6.51-1.556s-4.55,0.569-6.509,1.556l-7.949,13.775c0.269,4.719,2.779,8.833,6.499,11.282
			H59.453z"/>
		<path fill="#FF0000" stroke="#000000" stroke-miterlimit="10" d="M65.952,30.835c3.806,1.682,8.33,1.6,12.21-0.641
			c6.456-3.728,8.67-11.983,4.941-18.441c-3.729-6.457-11.986-8.668-18.442-4.941c-3.878,2.239-6.21,6.113-6.659,10.248
			C58.003,17.059,65.967,30.558,65.952,30.835z"/>
		<path fill="#FF0000" stroke="#000000" stroke-miterlimit="10" d="M43.548,42.117c-3.358,2.457-5.549,6.416-5.548,10.896
			c0.004,7.456,6.049,13.498,13.507,13.496c7.454-0.002,13.497-6.051,13.494-13.505c-0.001-4.478-2.19-8.435-5.548-10.889
			C59.453,42.116,43.78,42.269,43.548,42.117z"/>
		<path fill="#FF0000" stroke="#000000" stroke-miterlimit="10" d="M44.984,17.059c-0.449-4.135-2.781-8.009-6.659-10.248
			c-6.456-3.728-14.713-1.517-18.441,4.941c-3.729,6.457-1.516,14.714,4.941,18.441c3.88,2.24,8.403,2.322,12.21,0.641
			L44.984,17.059z"/>
	</g>
	<circle fill="#5F5F5F" stroke="#000000" stroke-miterlimit="10" cx="81.501" cy="47.123" r="16.5"/>
	<circle fill="#5F5F5F" stroke="#000000" stroke-miterlimit="10" cx="21.5" cy="47.123" r="16.5"/>
</g>
<g id="outline">
	<g>
		<path fill="none" d="M59.454,42.116c1.877-1.236,3.443-2.897,4.571-4.846c0.548-0.947,0.996-1.959,1.321-3.026
			c0.331-1.087,0.539-2.229,0.605-3.409c3.806,1.682,8.33,1.6,12.21-0.641c6.456-3.728,8.67-11.983,4.941-18.441
			c-3.729-6.457-11.986-8.668-18.442-4.941c-3.878,2.239-6.21,6.113-6.659,10.248c-1.959-0.987-4.166-1.556-6.51-1.556
			s-4.55,0.569-6.509,1.556c-0.449-4.135-2.781-8.009-6.659-10.248c-6.456-3.728-14.713-1.517-18.441,4.941
			c-3.729,6.457-1.516,14.714,4.941,18.441c3.88,2.24,8.403,2.322,12.21,0.641c0.269,4.719,2.779,8.833,6.499,11.282h0.014
			c-3.358,2.457-5.549,6.416-5.548,10.896c0.004,7.456,6.049,13.498,13.507,13.496c7.454-0.002,13.497-6.051,13.494-13.505
			c-0.001-3.716-1.523-7.058-3.955-9.495C60.548,43.009,60.025,42.534,59.454,42.116z"/>
		<circle fill="none" cx="81.501" cy="47.123" r="16.5"/>
		<circle fill="none" cx="21.5" cy="47.123" r="16.5"/>
	</g>
</g>
</svg>
