<?xml version="1.0" encoding="utf-8"?>
<!-- Generator: Adobe Illustrator 15.0.0, SVG Export Plug-In . SVG Version: 6.00 Build 0)  -->
<!DOCTYPE svg PUBLIC "-//W3C//DTD SVG 1.1//EN" "http://www.w3.org/Graphics/SVG/1.1/DTD/svg11.dtd">
<svg version="1.1" xmlns="http://www.w3.org/2000/svg" xmlns:xlink="http://www.w3.org/1999/xlink" x="0px" y="0px"
	 width="100.498px" height="76.84px" viewBox="0 0 100.498 76.84" enable-background="new 0 0 100.498 76.84" xml:space="preserve">
<g id="object">
	<circle fill="none" cx="59.503" cy="38.421" r="16.5"/>
	<circle fill="#FFFFFF" stroke="#B1B1B1" stroke-width="10" stroke-miterlimit="10" cx="78.998" cy="38.421" r="16.5"/>
	<g>
		<path fill="#FFFFFF" stroke="#B1B1B1" stroke-width="10" stroke-miterlimit="10" d="M44.161,52.893
			c-1.675,3.805-1.59,8.322,0.646,12.197c3.729,6.457,11.986,8.666,18.443,4.938s8.666-11.984,4.937-18.441
			c-2.237-3.875-6.11-6.207-10.242-6.656l0.001-0.011c0.988-1.959,1.557-4.166,1.557-6.51c0-2.342-0.568-4.547-1.555-6.505
			l0.011,0.006c4.132-0.451,8.003-2.783,10.24-6.658c3.729-6.457,1.515-14.713-4.94-18.441C56.8,3.083,48.546,5.295,44.817,11.752
			c-2.238,3.876-2.322,8.395-0.646,12.199c-4.719,0.269-8.832,2.779-11.281,6.499V46.37c2.449,3.719,6.562,6.229,11.281,6.498
			L44.161,52.893z"/>
	</g>
	<path fill="#FF0000" stroke="#000000" stroke-miterlimit="10" d="M57.959,31.911c4.132-0.451,8.003-2.783,10.24-6.658
		c3.729-6.457,1.515-14.713-4.94-18.441C56.8,3.083,48.546,5.295,44.817,11.752c-2.238,3.876-2.322,8.395-0.646,12.199
		L57.959,31.911z"/>
	<path fill="#FF0000" stroke="#000000" stroke-miterlimit="10" d="M44.161,52.893c-1.675,3.805-1.59,8.322,0.646,12.197
		c3.729,6.457,11.986,8.666,18.443,4.938s8.666-11.984,4.937-18.441c-2.237-3.875-6.11-6.207-10.242-6.656L44.161,52.893z"/>
	<path fill="#2F2F2F" stroke="#000000" stroke-miterlimit="10" d="M32.89,46.37c2.449,3.719,6.562,6.229,11.281,6.498l13.775-7.949
		c0.988-1.959,1.557-4.166,1.557-6.51s-0.568-4.549-1.557-6.508l-13.775-7.949c-4.719,0.269-8.832,2.779-11.281,6.499V46.37z"/>
	<circle fill="#5F5F5F" stroke="#000000" stroke-miterlimit="10" cx="78.998" cy="38.421" r="16.5"/>
	<path fill="#FF0000" stroke="#000000" stroke-miterlimit="10" d="M22.828,51.868c4.133-0.25,7.758-2.354,10.062-5.498V30.451
		c-2.457-3.354-6.411-5.541-10.887-5.541c-7.456,0-13.501,6.045-13.501,13.5c0,2.165,0.522,4.203,1.428,6.017L22.828,51.868z"/>
	<path fill="#FFFFFF" stroke="#000000" stroke-miterlimit="10" d="M6.252,65.688c5.501,3.176,12.535,1.291,15.71-4.209
		c1.755-3.039,1.958-6.545,0.866-9.611L9.93,44.426c-3.199,0.589-6.133,2.517-7.887,5.554C-1.133,55.479,0.752,62.513,6.252,65.688z
		"/>
</g>
<g id="outline">
	<path fill="none" d="M78.998,21.921c-3.651,0-7.015,1.201-9.747,3.208c-0.239-0.176-0.477-0.352-0.726-0.514
		c3.237-6.354,0.979-14.196-5.267-17.804C56.8,3.083,48.546,5.295,44.817,11.752c-2.238,3.876-2.322,8.395-0.646,12.199
		c-4.719,0.269-8.832,2.779-11.281,6.499c-2.457-3.354-6.411-5.541-10.887-5.541c-7.456,0-13.501,6.045-13.501,13.5
		c0,2.165,0.522,4.203,1.428,6.017c-3.199,0.589-6.133,2.517-7.887,5.554c-3.176,5.5-1.291,12.533,4.209,15.709
		c5.501,3.176,12.535,1.291,15.71-4.209c1.755-3.039,1.958-6.545,0.866-9.611c4.133-0.25,7.758-2.354,10.062-5.498
		c2.449,3.719,6.562,6.229,11.281,6.498l-0.01,0.024c-1.675,3.805-1.59,8.322,0.646,12.197c3.729,6.457,11.986,8.666,18.443,4.938
		c6.246-3.606,8.5-11.443,5.267-17.797c0.251-0.164,0.492-0.341,0.733-0.519c2.732,2.008,6.096,3.209,9.747,3.209
		c9.113,0,16.5-7.389,16.5-16.5C95.498,29.308,88.111,21.921,78.998,21.921z"/>
</g>
</svg>
